<mxfile host="app.diagrams.net" modified="2023-09-11T05:21:55.105Z" agent="Mozilla/5.0 (Windows NT 10.0; Win64; x64) AppleWebKit/537.36 (KHTML, like Gecko) Chrome/116.0.0.0 Safari/537.36" etag="3eQgKPcebbsS9Po0FSHh" version="21.7.4" type="github">
  <diagram name="第 1 页" id="9JXRR2FQcuDCm_Itce8K">
    <mxGraphModel dx="7041" dy="2560" grid="1" gridSize="10" guides="1" tooltips="1" connect="1" arrows="1" fold="1" page="1" pageScale="1" pageWidth="827" pageHeight="1169" math="0" shadow="0">
      <root>
        <mxCell id="0" />
        <mxCell id="1" parent="0" />
        <mxCell id="J2ooBoPmb8nhM15LZhtm-1" value="" style="shape=image;verticalLabelPosition=bottom;labelBackgroundColor=default;verticalAlign=top;aspect=fixed;imageAspect=0;image=data:image/png,iVBORw0KGgoAAAANSUhEUgAABIcAAAE/CAYAAADc0KMkAAAgAElEQVR4AeydB5gVRdaG0TWvcfV3XV3XsGta15wDZhHXVVFRzJgIggqIggRRkiJRMoLknCRIjkMOQ84555wHGMbzP18Np6nb033T3Jm5987XzzPTfburT1W9XV1V/fWp6gLChQRIgARIgARIgARIgARIgARIgARIgARIIN8SKJBvc86MkwAJkAAJkAAJkAAJkAAJkAAJkAAJkAAJCMUhFgISIAESIAESIAESIAESIAESIAESIAESyMcEKA7l44vPrJMACZAACZAACZAACZAACZAACZAACZAAxSGWARIgARIgARIgARIgARIgARIgARIgARLIxwQoDuXji8+skwAJkAAJkAAJkAAJkAAJkAAJkAAJkADFIZYBEiABEiABEiABEiABEiABEiABEiABEsjHBCgO5eOLz6yTAAmQAAmQAAmQAAmQAAmQAAmQAAmQAMUhlgESIAESIAESIAESIAESIAESIAESIAESyMcEKA7l44vPrJMACZAACZAACZAACZAACZAACZAACZAAxSGWARIgARIgARIgARIgARIgARIgARIgARLIxwQoDuXji8+skwAJkAAJkAAJkAAJkAAJkAAJkAAJkADFIZYBEiABEiABEiABEiABEiABEiABEiABEsjHBCgO5eOLz6yTAAmQAAmQAAmQAAmQAAmQAAmQAAmQAMUhlgESIAESIAESIAESIAESIAESIAESIAESyMcEKA7l44vPrJMACZAACZAACZAACZAACZAACZAACZAAxSGWARIgARIgARIgARIgARIgARIgARIgARLIxwQoDuXji8+skwAJkAAJkAAJkAAJkAAJkAAJkAAJkADFIZYBEiABEiABEiABEiABEiABEiABEiABEsjHBCgO5eOLz6yTAAmQAAmQAAmQAAmQAAmQAAmQAAmQAMUhlgESIAESIAESIAESIAESIAESIAESIAESyMcEKA7l44vPrJMACZAACZAACZAACZAACZAACZAACZAAxSGWARIgARIgARIgARIgARIgARIgARIgARLIxwQoDuXji8+skwAJkAAJkAAJkAAJkAAJkAAJkAAJkADFIZYBEiABEiABEiABEiABEiABEiABEiABEsjHBCgO5eOLz6yTAAmQAAmQAAmQAAmQAAmQAAmQAAmQAMUhlgESIAESIAESIAESIAESIAESIAESIAESyMcEKA7l44vPrJMACZAACZAACZAACZAACZAACZAACZAAxSGWARIgARIgARIgARIgARIgARIgARIgARJIEAJ//PFHzFOaI+LQvr17ZVJKivTt2VM6tmsnbVu25B8ZJGUZ6Ny+vQzs319mzZwpR44cifkNSoN5Q2DH9u0yf+5cmTJxoowfM4Z/ZMAywDLAMsAyIFMnT5bFCxcK+rlcSIAESIAESCAvCcS9OIQHKohBlcqXd/6qVKwoNb75hn9kkJRlwC7rVb/6SoYOGiRpaWl5WU8w7igJZGRkyMzp06VJ/fpO/WVfX26fqtfJgixYBlgG8nMZqFyhgrRu3lyWLF4cZYvD00iABEiABEggewTiWhxaOH++VK9UyTxUtW/TRubPmSPbt22Tw4cO8Y8MkrYMHDxwQDZv3GjeJv7csKEp//Vq1TJlP3u3O8/OTQIHDhyQNs2bm+v3beXK0qdHD+cN8crly4V/ZMAywDLAMsAysGDuXOMZ361jR8HLTwhkPbt2lfT09NxsshgXCZAACZAACUjcikNLFy8WvEWpU6OGLJo/P2mFAApdFPqClYFDBw/KhHHjTIexznff0e08QSptCEP169Y1nfz+vXvLnt27WYdR0GYZYBlgGWAZCFoGtm3ZIh3btjVtR7vWrSkQJUibz2SSAAmQQLIQiEtx6NChQ/JdlSryfdWqsnH9+qANabAHax6j8JIsZWB2aqoRS5s1aiQYqsQlfgmgUlWPIcyTlixlkPlgfcoywDLAMpDzZQAvhfBSAR5EmH+QCwmQAAmQAAnkFoG4FId+69vXNIqp06fzwYpv2VgGTpaBQf37m/ti3pw5uVU/MJ4oCOD6oFPfu3t3ll3WXywDLAMsAywDEZcBCEStmzUzL4U2btgQRUvEU0iABEiABEggcgJxJw4dO3bMzDP0c4MGETemfKOV82+0yDjvGO/euVMwQXWrpk0jv9N5Rq4RgHcX5krD9eL9knf3C9mTPcsAy0Ail4HVK1eaFw29unfPtfaLEZEACZAACeRvAnEnDq1Ytsw0huNGj+aDFd+2sQy4ygC+3Ie5uPj1svisuPEpYngNde/cmWXXVXYT+SGNaafIkN0ycGD/fhk8eLAMHDBA9u7Zw/qB9UNYZQBfusQ0CxxOHp9tPlNFAiRAAslGIO7EoQnjx5uHK0xInd3OWKzPh5tvj+7dpV3btrJ+3Tonfbt27ozphLOxthdrDolsD18C27pli+BaRpqPTRs3SquWLc31z6vO/chhw8z9gbRwiT8CSxYtMtdn8oQJEZevSMsjw3sLFuPGjpV27drJ3DlznGsA0S6WX7qMtT1eS+9rGYoL6vFtW7cKhJdQYXE8O/V/OPaDhenVs6cUKFDA/K1auTKs9AazF84x8OnapYtpt9asXh2zOPOSYzj5TqYwOvcQ+hxcSIAESIAESCCnCcSdODRi6FDzcLVm1aosHZnhw4dLrZo1nb8ff/zRiDXoHOZGZwAPF9q5+/XXX02cv/XvL6eddpqceeaZMmPGjGynI9b2coNLbsUxwnX97bKg2xDugqXnvvvuM9fwjddfDxrOywbe+Or1X5BHX9BLGTs28/5YvTqn6wbaj4JA6owZ5vrg08ReZSjZ9y1csEBQL9etW9f81atXTzp06CCrPerznGJx5513mvv0/fffN9dgzZo1cuGFF5p9zZs1y/Z1ibW9nOKQV3YhSLRu1copA1oWsP7hhx9k544d2b4GmreKFSua63rVVVfJ/n37Qtq9//77Tfho6n+NM9r1yy+/bOJ+9NFHfdM5e9asAG7g1axpU5k+bVpULzR279pl4kS71bJFC994I81TXnKMNK2JHl5fCG3ZvDmKFomnkAAJkAAJkEBkBOJOHBr2++++4tB1113ndHT0IR3r8847z7wpzulOgJc41LBhQydNgwYODLvz1b9fPylVsmSWDlu09nI67/Fg/60333RY29ff3v7b3/4W9BpccsklxgZEokjzRHEossolP4aeOnmyqb/i0fMx0vIeTXgIMvb9qNsQ0D8rWzasB/ho4rXPcYtDEO01HRAT7LDBtufMni2ff/aZfPPNNwGeKdHaCxZXMh1bumSJw1u52+uZM2eGfQ2US6NGjaRsmTIyauTIgHNfeuklExfKl4pOO7ZvF1zncl98IcuXLQsIr/U/xA21nRtrPNifddZZJq0tmjf3jfudd97xZff4Y4/Jhgi/3podcSgeOebGtYq3OCgO5ceeBPNMAiRAAnlHIKHEITz4o5P5n1tvlW+rVzfiir4RRucQb9dysmH3EocwRAlv9jCMIZw3l5q+t99+2+QFDzK6D+to7dk2knW7W9eugodP/BUpUsTpRD/wwAPO/hrffhvA080CDxcNGjSQ1NTUoOHc5+E3xaG8q6gSJeb8Lg4Ve+MNc1+ef/75UqVKFfOAbov6jRs3jvi+87oXg+1zi0PwZIH3Eu57ezhwMBs49kubNk4dYw9Ji9ZeqPiS5Ti8KlUMKlSokFSoUMH5+/LLL6Ma3nf11Vcbm198/nlA+UFc8E6zX8wsWbzYib9f374B4eF9Cs+2aASq7FwfeFKBCTyMMSTYz5Z9/8AbtlrVqvLII484+Xnvvfd8z/WymR1xKB45euUx2fdRHEqU1p/pJAESIIHkIJCQ4hA6UNohsB/YK1WqZPavWL5cevfqZd4a4k0bHkgw7l7PwXrypElm/08//WQ6ll7CDub+gSCBziQ6nxi+pp1eHVaGt5VIw5AhQwLeLiMOxI2HEriGd+7c2ekUjx83Tp5++mlj61//+pdguBzmycA5wexhzoD27dsbt3N1NbfzhO1pU6dK3z59TFx4oOnYsaNJ/9ChQ8N2S4drO95uYhgAhmmBp8YDm/B6Qp4x74bux3pWaqrhjqEluh9hwA4deFwHcNdjWOPtJDrwSDfCgmuTxo0F7O1w7m37AaTpzz8HhLUZ4O0/rp/yhSgEPuj4qk2ERxrAHvnr1KmTc80xt4KGs8uae1jZ5k2bzDXGtcaDAN6e63m6RhiUQ6QHD57RDLXhsLL4rngpDmWKQ7YH37q1ax2viYcfftjcF7jvcT9Nnz7diOqop35u0iTgvsc9hDm+tP6E94XeS7qGUIO6DfUL7ls8DHuJQxCFB/z2m7htoM5BOiActf3lF+eexHxFEDW0vse5qKdRLyFOP3s4jroE7Qpsol1wty0rV6wwdSjWqF8GDxpk6gTUDe46VfPpXq9du9bU7fawIw2D9EEEwRBltxiGNgT73fVwsPYQ9pB3/Ok2eC9bujTL9UAa7LoZ9Zymy72GBxa4oizgT+tdpF3D4noi3sv/7//MtXj1lVfMb9TrCIM6FO3RlMmTzW8M+YMdvW41v//ehNf5dlD/I7xd/8OOu51Se5oOXU9ISTEvg3BtUQbs9kHDeK3h9YM0/e9//3Py5hVOxSH7/kEceCGG8//+978HnB8q3X7iEOZoGjtmjKDtRDuPfgXKlKYpWo5I65jRo01bj3YOczTihZfaxdq+9/EbdUD9+vXNve4urzi+aOFC0w+BvT69ewfUEbbdZN2mOBTfbT5TRwIkQALJRiDhxSFbsNG3atqpx299a403dug8oPOurujagcQanS/7YR0ddwg3dpinnnrK+a3ikJ9ggMkn8fbcPh8dXMRh77O39+zebR5UdJ8tQKAzrm7pehxrdDbVnR75u/fee43972rUkCuvvDIgrhIlSgR00tydKXQk3yxWLOAcxHH66acbTy2ETxk/3jmODqXaQKfwr3/9qzmGoRjYj07dLTff7ITXdL9etKjzwKT87r77bnnxxRedsCrmqH332n4AcYtDygBi4TnnnGNs4trBhh6zBUbdV7dOHcHcFZpOrJEmnexU04r99rXB/osvvjjgvD/96U+mw6vpHjlihFx00UUBYf785z87tjVcqDXFofiugikOZRWHUKb14fbaa68196HeS7jvbS9ACOcI//1335l6x74X//KXv5gHT71HILq46/Ibb7zRPEDjPJ1zyO8BGQLQP//5z4B7Eu0E7tUHH3wwYL+mA0KOn71hw4Y5daCGxxp14OJFi0y+kHZtnz744AMpWLBgQDzwEgk12T2Ep7PPPjvgPMQDFmjfUF+de+655vjHH3/sxIu4i772mtmvHqt+7eFtt90mKqjY+UUdqXmDZ4teC3tt183BxCGtdyHgqGeQ2oaHEWz+/vvvTnx6DGsdFqYsVUz5+uuvPcPrcEKN067//doptIVa92Ntl1NNC8Q5O+9e2+hLaHi8bPIKo/u8xCEc05dJtjgUTrrta6dzDuHlzTXXXOOkSdOGMoP7EvFFwxFD+O65554sdtE22p5deu/fddddUubTTwPCo89it60QhND/0DRiXbhw4aAMlWWyrCkOxXebz9SRAAmQQLIRSHhxCG/vtOMAF2x0CLTDqPvxQKKdR8xbgP3/d9llxsMDbxm1o4QJI7VD8corrzh2ISzYwhDODyYO4UFAO+/o9GKujRdeeMHYw9tS2L7iiivMbwhI6Pghbggs2nFCHNpJwtsyzQvmyqlcubI89eSTzr7y5cs76dbOL8JjLqb//ve/AcKF7dWjedU10qnxII3oIN5siTt4y4tOsr7FRRg9d+KECc65eJOPvNx+++1mHzqM3bt1M2/SlQvmkMC5dn4RN2zj2sCbR217re0HED9xSPOCB0Y8OMGO8rEfDnQfwuN64AHKFongaeROq14beFWBM87FnEgI+2np0g4LvBXFuf++5RazD9cZHWV4fj1WsKDz8OGVR699FIfiuwqmOJRVHILngArlEEPc9xLunUsvvdT8oX6E1yf2qSiN+k/rO9TjKp7A0wjh8Id6Cg/vZ5xxhrMvmDiEekyFazwUQ6jBUF9swy6GLes9C/tPPP64qadx33s9cKMe0DziAR5ixLvvvms+VoDzUcfA6wZ5d7dPaFuuv/56J93wYPK697EvVFsA2winQgbaGdTF2AduOgwb8yhhn7aHl3m0h/DSQRg7v8gLBHe0a5gfD8fdf3bdjBcBELP0zx7OZde77rYKw8QhfuAP7aO2G4gXvzFkEfEqS23fUXbsYVhogxAeHiwIr3Fq/W+3UxArEA5eLBofygLOQ/uFvKN8YAg5rkPJEiV8GdhMICDh3AsuuMCwtI+5t93iEF78wKtOBRIV+8JNt33tVBzCiyvcJ6+9+qrJKwQY8EMab/33v01+o+GoHntgV7pUKTNfl87xhHsD3kjIr7vNv+OOO4zYh/jxh3mXEA6eTLoP1xv9D7z00vvazS5Zf1Mciu82n6kjARIggWQjkJDiEB6q4RqPYUrqHYPO07yTXwjSDiM6FhA40CnHH96SqicJhv5oZ0Ld0PHWGA8NeJiB5wfOxwODhkMnSjsrwcQhPBggHDpg9oSYcFXXYQN+cw7ZHScVIDAUA/Zuuukm53x0DsEB+/FGXR88tPMLgUVd70ePGuWk2+9rXhhOpR1iPChpnjEMQx8oVGD55JNPjD14vsDbCWHhpYO04CEDb/Tx9h2/8YcOvtr76KOPzD48bGGfnV/swzXSvOg5Xmv7AcRPHMIDBuzjfLWpfPThAMd0Hx5QtQzhbS/KA9KPTjTC2WnVa1O9WjUTBg8tKDsa1w033GD26xxIKiDBIwJhov2jOBTfVTDFoUxxCHUS7hc8SNteOFrv2veS+77Xeg1iq94n8GLR+kS9i9RLAR6eqDcQFi8LtB7Th0ivB2R4AKk9e8gxhrKpB6nfnENe9iDYwx7aDXtIKV5YaDwqjNjtk8YND1itZ9UDVvNur0O1BajDUNd16dLFiRfCPWxgiJumBcOrQrWH4Ih2xs4vxCYdkqV1qp0+bNt1s8anaxV1EM6udz3bqnbtnOuP+hU23HMOKUsVh2A32Fw5GqfW/6HaKQhLsImhV4gfLy82btjgpAvHQv3pSxKIhaHCqjiEuFQQUnaYv0mHaIWbbvvaqTiEfeoVpunByxqNR9uxSDjihZCej6H0ahdDBHW/1wshvEhBOcIf6gGEVe/CSRMnOudiCJzazG9rikPx3eYzdSRAAiSQbAQSUhzSzoauMdwKDyHaadAOIzrK2tHBMdu7BW9F4dKMP9tLCB17e+iUigs4HwKKxhlMHNJOTrAvYoUrDqFzrm/DkS/NI9Z4w6npWbVypTnm7vwiHMQaDacdNNsOtm0Byc4zjmHoGs7HEAz8xvAJtadhddgIxB+E0eEHEGiUM9b6Cdx//OMfJpz9kAivAZwbzp/9AOInDqmYZdvz4uO1D+foG2gMfcFvO60qDqHDDhbwFrDzqZ5H+hb0ueeec5g99NBDZo4H91wkdjr9tikOxXcVTHEoUxzS+sFew9MC9Zn7XnLf9/DOwHkQlex7Sm3h4RMPkyoCuetF9WAIJg5BtFV76onkvuciEYe0zkddYtuBB6TGg3nncEzbJ1vQwH4V0WwPVttWsLYAnjkaDzw0MK+LvgjBCxLYUY9GvGTAb7s9hACurO32EO2KLTD4eQvZ6bTrZnjMQhDSPzzwa1ivetevrcopcUjbKQgxmn+stZ3SNs/uE2CYFDyu7KGCmif3GvP36XWBOOc+7v5ti0Pov+i5aE/mz5vnnB9uuu1rp+IQ4gRnCDe4nvCSQ5nTuHAOwkQiDtn3kwq1sIH7VIdTq9eTVzuKsDqUDcIyfqO/pQwguqLPhvmMcCw//VEciu82n6kjARIggWQjkJDiEDpK6MzgTRy8eewJk9Fp8Ot82/MXQLRAh9D+g9cLPGXsN6yYgFI7IuGKQ/pw8swzzzjnqg1dhysO2XHWrlUrwJ798KLDxbw63IhTO35+4hAmUdUw6AhrOrHWtMJLC78huMEzCeEhBtmdSO0Aa0cPYWzGuo1hIrDl11G04/fath9A/MQhfTtsn+/Fx2sfztGhgBjygd9eadUHOr98wg0e52JSXrWnnCE+qeeVncZg2xSH4rsKpjiUKQ5BuEEdDe8fDGFyT/DrdS+h3NvigN4n9hpC+eDBgwPC1ald29xjet9o/RtMHIIHCuzC+1HPc6/t+hX1sB73euDWON11Pl42aPp1uJhf+/Too4+asH7iULC2ALY1HvVc0gd+DJ/DQzoEeYRR7x27PdRz7TWGBMFLxiu/ysJrbdfNYOgVBvv86l1Ng91W5ZQ4ZLdTGq+91mGQSC9eQGm7hzB4KYUhWn75w361j/n47BdVfueoOKTCITxZNU4Mj9YXCmrXTqu9ren2unYQtWDLDm9vRyMO6f2E+96dNy13+qLE795HuUQ6VByCHYiJGOpmp0/no3LHk6y/KQ7Fd5vP1JEACZBAshFISHHI66Hf7hj4db7tN6XwfrHPsbcxT4x2RjDXgB5DR1n3B/Mc0mER6JTrue61Ci4Yb28fc3ec7LfFePNuh8UbP6QHQpc+vETS4bZt2Z5D7kkz9UsrGMah5+AtIOJGp1c9mPCWTzuv+mYTadOhdHquvXbn1z4WbNt+AImVOKTDxzRenXNEJz/1Sqt6DkHo0fOCrTF8Ap1kLUf6wBjsHPsYxaH4roIpDmWdc8guv7rtdS/pMfUcQv2m+7zWOgk85jexj+vDZDBxSIeD4j70+7S4LQ5h2JfG4fXArZ5DqDM0HNZ2vQpRC/v82qdQ4pDdFpQqWTIgHvXcgPiuHyiAp5LWMxAxdBtDypAOuz3EcDw73fa2V37t4+5tu26OtTikHzvQOL1Y2i8rdL44De9uH7WdgugYjngDFmj7dTi7esCqfXsNQU7nM8R8fvYxv223OIRwmJ9Orx2GwGNfuOn2unY6KTnShpdfGKqG4eYaB85BHJFw1PIHG/hKq+YPXnnqwfbVV1+Z/X73vpc4BDvgiP7aAw884KRRBVCNJ5nXFIfiu81n6kiABEgg2QjkK3HInmMBXkfodGinAh1DzDOD3xBa9AEFb+AgbmCf7fkRTBzSDis6SpgbCTbxcFGuXDlnPgqdtwfeSvAeUVHFq+OknSK8QdQ0whNFO57wXtF8uDu/ul87fvbbWD2GNTqI+jU0iEE61AIPEBB4cD7eVuo59hwD2lH+8MMPneP2XANuAQRDHrQD6ZVfjSPY2n4AiZU4BNd1FcZsTyp9IPFKq84pgvmJ8PUjO80Y3oFri3Jme07gt7rLq2eRfV6wbYpD8V0FUxzKvjiEOhf1DYQW1BV6P+C+sb1Eddgn5oHBPEEQT+yH1GDikH0vo16GbbQBGHqjgoI9bw+Gh8E+/rweuPHgq3Us6kakGXW6foERc46pwKTtg3qHaP5CiUMIp20B8qxDidEWYJ4WxA8bag9tlg69w7BXHMfE3Xrcbg/BCgz0GFjo3Ete+dVwXmu7bo6VOIShcEg/2mDEqe2lF0t7ImMMt7PDu9tHu52yh6bjHJQ9FQ6RJ3gVa34xHAvpQZthc9PjWGOeHITB3+RJk5xz7TDubS9xCGKfzkelLyrCTbfXtcNwd6SpePHiTprQDmlaVRyKhCOETz0f829pvvCVVd0/fPhws9++98BVw7rFIbC3h+5h+Knayk/DyygOxXebz9SRAAmQQLIRyFfiEDoh+LKXdjDwhvmN118XzAeDh3WIItpR0YmTERaiDL40gm19CxZMHEKHRsUlnIO3i3qezrnQpHFjJx2IG1/zgCDj1XGyhQqEQ+dOO4sQbrTThbS7O7+aH82znziEcOW++MJJEzyC4Cmk8x1dfvnl5ushag+dcwhbahdrDFPQ43iI0rTgGB740PHFGg8s6hXglV+1EWxtP4DEShzSvOChTbeRf52k2iutEOt0TgU8AOIzu3gziy/fwAbeyOMhDNvYB48rDD3Bb1w7iG/B8uk+RnEovqtgikPZF4cgqOv9h3sRc+BgiNR1111n7hm9J/RDAgiLew91FLa1rg0mDqH+Ug8jnINz9ctKmHwYccDDRtMB+6inUcd5PXBDtNI2AoIB7nWddww28Ll2TbeXoIFj4YhDEK40Te62AF5Dbg8gzLum4bHWIWWalnDaQ6/86vlea7tuRpw6lFjXOseUtg9uT2BNr91W2fMg4WWEimBeLCHW6FAsxInw+mLDHWe47RQ44fpi3hvU4dr2Pf/88851dbMoUaKEYY+PE/gJSO5zvMQhhFFbYAOhKdx0e107fTGFdhgeaPplO+Wu4lCkHLXNgx2Iefb9hYm9lYFXO4o8usUhfJ0M1w9f84PXtHry4l61RWM3w2T7TXEovtt8po4ESIAEko1AQolDmBwSHQ/bQ8WrI6BDBnQySTsMHgrQUUTHWjtDWGOIAoZHaVh40uiQIRzH3BR4W4jOIX7rV2b0DR4e9JctXeqcD8EGDzMaB47js746WSPW+nlmhEFnEx0+P3uYhNV+2MA56ICho6VpxlqHtNlfHMN+fWDSrwXZ5+g22OANOPKq6cb6ySeeCJgMU8PjjbuGgxcTztdjWOONNjr16OBpOKwRVgUtv/zadry28RU4tet+4+vHAHa8jukDw7PPPiv407Ri7gN7Tgm/tMIrSL+cpOdiDREPX4VBp1g9CPQ4xDd3ur3y6d5HcSi+q+D8Lg6h3kEZxxfE3GXX/u13L2kY1Hfq7aL3DLzzbCEB9xXEAYgxCIP6AG2DeivggRr2ILrrlwftLymhDlEvJY0DdYHO34ZzbY8g2MeQYz97EHoxTFhtYY16Hd4r+mAMm+pt6G6ftO556623grJDvYGvhtnxwCMIX2BTfrrGJ9c1HDxD9atgetyvPYRQpu2hX37VhnsNDxsd8qdx22swxDnKPpy2CunG3G9qB+0wbPix7NmjR0Abr5+k92C6frYAACAASURBVIrTr52CN5a2U/CMUcFJ04APNagHrJsBvI3VO1RfhLjDeP32u3/ATMs5vgyKc8NJt9e1w/B4HSqOvKBvgHm70CdCHDhH0xYJR3gagQn6OsoIAhRetNlijt+9jzTgPNz3iB8vXmyBCcdwf4XrhaV5SPQ1xaH4bvOZOhIgARJINgIJJQ7B1R2u+XZH26vhx3G41LvFCjssOm/4kgg6GhhbD2HGPq7beIDAkAKdxwFpsDs6CAehx2tiYaQDb1GnTpkimzdtymIfx9HBm5Waat5Ga5zB7OHBBWlGujS8vfZjhPy6022fZ2+jc4i35ki3X+dXwyOtoa4JrgU6t7CHoVZ6rq798qvH/dZIp1ee/BjAjtcxFYf0wROeX/oQ6I47WFrROYZQhE9W6yeH7fPhJg8GsB+sbNrnuLcpDsV3FZzfxSHUaagPcJ+5y677d7B7CWFhC/cKvC0xZNN+aLVt4WEX99X6detMnDgPdY5dp/vVFbCD4VOoU3WYlm0b28gP6mi7Dg9mD3ZgDx6HXhw0fe46AOkNVZdq2hAWbUuwtkDDIq2oj9zx6XGsQ7WHwfJr24lk26su1rR41evIM9pq5FuvrR9L2EGbjHKjQ7Gxzy9OHAvVTinz6dOmBZQFnOv+69+vnyOQ2GKjO5z7N/Ljd//gGniVj1Dp9rp2iAflHn0bnI90IJxXPyZSjhAHYRftoPab3Pn0uvf9riWuH9pVpBdh3LaS/TfFofhu85k6EiABEkg2AgklDiV7J4D5y9rJzg0mbnEoN+KMNg6KQ/FdBed3cSjacs3z8qbuI/ec4Q4vYXi6wHuUjHOGcX7hSnEovtt8po4ESIAEko0AxSGPt375pdPBfGZ2WikOJVu1lnf5oTjEB0HWqywDmDgcQ4c7duxIcYh9rGyVAYpDedeeM2YSIAESyI8EKA6x45KtjksyPAhhXg7MC4HPTsd7fug5FN/VNMUhCgPxXocwfSyjLAOJUwYoDsV3m8/UkQAJkECyEaA4RHEo7gURdmRPdWQpDsV3FUxx6FRZ5X1LFiwDLAMsA9krAxSH4rvNZ+pIgARIINkIUByiOERxKIHKAMWh+K6CKQ5l70GID5LkxzLAMsAycKoMUByK7zafqSMBEiCBZCNAcSiBhAF2mE51mPIrC4pD8V0FUxziPZpf6ybmm2WfZSD2ZYDiUHy3+UwdCZAACSQbAYpDFIfoOZRAZYDiUHxXwRSHYv9wxAdOMmUZYBnIr2WA4lB8t/lMHQmQAAkkGwGKQwkkDOTXzhHzferBgOJQfFfBFIdOlVXet2TBMsAywDKQvTJAcSi+23ymjgRIgASSjQDFIYpD9BxKoDJAcSi+q2CKQ9l7EOKDJPmxDLAMsAycKgMUh+K7zWfqSIAESCDZCFAcilNh4OCBA/Jzkyayft26mIs3vXr2lOnTpsXcrleH7tDBg/Jb//5Su1YtmZCSkitxeqUjWfZRHIrvKjiRxaHVq1ZJi+bN4+Ye7dKliyxftixu0pPTdUhO1vk5nfZY2c9v1zxW3KK1k9tljv2BU6JPuNeM4lB8t/lMHQmQAAkkGwGKQ1GIQwN++01eeOEFz7+vvvrK92HmpZdekhIlSvgetzsLs2fNkgIFCkQtDs2fN0+KFy8u99xzjzzx+ONSv3592bd3r6Bz9n+XXSbdunYNKx12msLZducRPK688kopXaqU/NKmjfz444/yn//8J1fiDie9iRaG4lB8V8F5IQ7t2rlTChUqJKmpqQH31fZt2+Taa6+VDh06BOz3K/MQo2+5+eawwtb8/nun/nu9aFFp17atqVv8bEe6f8f27XLaaafJlMmTTXrc9Uok9nKyznGn47saNRwub731lhHb9u/bFxbT7Nb5SEt2OLnz4v6d29c8O9ctO+e68x3qd+9evZxrrv2Cb775Jqxr7mV77Jgxpo1esnhx1DbcdocMGSIvv/yy3H333SatfXr3NrZjUebccdm/3eWR/QGKQ/HdgjN1JEACJEACFIeiEIcmTZwoTX/+2fz9+5Zb5KGHHnJ+Dx8+3LdD99NPP8mY0aN9j9udql9//VX+/ve/hxXWPg/bXbt0kTPPPFNee/VVI8gg3uuuu06GDh0qK5YvN6LT4kWLorLtjsv9284jHlrPPfdcGTRwoBMXOqXt2rVzfrvPD/d3xYoV5e233w6wY8cdrp1EC0dxKL4r7bwQh8aPG2fu6XVr1wbcD9u2bpXKlSubez6ccv7+++8LBI1QYSF2nHPOOfL5Z59Jm9atBffi6aefLg0aNAh5bijbehwPyKjD9u7ZY2yGe2971QuxqnM0bX7rA/v3m/quzKefSutWrQQPwn/605+kVs2aYXGJtM5/8MEHTTx2esLlZJ8TznZeXPNwr1teXnOwe+aZZ+Tpp582bS1egOAv3HYeL5og4NrXYObMmQKRUUVFr/zZ4YNt42XQZ2XLyllnnWXuV5SxSpUqySWXXCJ7du+WSMtcsLi8jtnlkf2ByIUhMKXnUHy3+UwdCZAACSQbAYpDUYhDdicIHTt0gOx9eGO/ZvVq2b1rl+kkbt2yRfDgsGD+fOftOoaLbd60yTz8YLjVsqVLA2yULVNGXnzxxYB9GzdsEDw0LV2yJGC/Hff06dPljDPOkIYNGwaE2bljh+ls4i3nxRdf7KQD565csUJGjhghmzZuFIRD2tUmfiN9GIYGF/Rg++084sG0e7du5qF1zuzZgrTjXKQdnUS1g3PmzpljONn70amFJwTyiwfEDevXy5bNm815GGpy3333mU4v3q6Csx232oaNRQsXGttrXQ/O+I3rAtsTJ0zIwl9txNua4lB8V8F5IQ41btxYrrrqKuee0jKLeghisP7GvQLvQdxH48aONfe7HsP6tttucwQe3Duor3D/22GwPWPGDHNf2/XQU08+Kf/73/9MWL23UMfh/sW9ifNgE/Uc9ml9YNvWegj1IoSmO++805zndW/jnodX0dQpU5x6yategH13nZNT9cKs1FTDBXWO5uvxxx6TV195xfmN/X71uLvORzq96kBcQ3iGQnjCMCzkD2G9OCEsrhfqcJQHTRfWep3CqQNDXXOvNk/j8ssvjvtdcxxzXzfkz91WxOKaa9rBENcQecW2pj/YGuEuu+wyI5J6hQvGGGIurvn9998vuDdR7mED+9HeYdsrf9iHtkvjQxpwr6qQqvuxbta0qRGG3EO69fxwy5zazOn+gNd9jbiRR697Ace8GHndC7CRiP0BikPx3eYzdSRAAiSQbAQoDmVDHIKYgqFfo0eNcjpq6KzgzRyEnRtvvNG8Se7RvbvArRtv2/VtYMGCBc2bvGuuuUauv/56M4QC4bQT9vDDD5u3h/gNUQZv/y699FLBeRdccIFUq1rVCavnYI3hJTgXHSF7v27Dk+DJJ55wjmEuILxVvOGGG0wnt3DhwvLhhx+a43iI++tf/yqPFSxo8oJzYcdvv53HL7/80uQdQtXl//d/UuPbb42IgwcanA876PzjARDH4dmENR4k8EYTLvDnnXeeeat6++23y39uvVU6duxohCt0xsEdbz9xDjy57LhhG/OnPPLII4bZrf/+txHMMGxGOYBj+fLljX0IfPB8+P33353jGi7e1hSH4rsKzgtx6L333nOEGbu8oh6CaIN9uKfgiVO3Th0zZOVvf/ubud/V2wgPZbg34fGAB6tPPvlE/vGPf3iKpm1/+UX+8pe/BNQxGK5SqmRJExc8KbF94YUXmjoAcUAogncFvCFxX/75z38WeE1oeuvUri1nn322qYdwX991111OPeS+t3Gfap2BIbLIIwRtr3pB86V1Tk7WCxhaZwvveNhHnf3DDz+YfIaqx+06P1gdiHYCbFEHggPqLwgDbk64lmhfcBxrXDN4mSnzSOrAUNfcq80Lld9g19x93bzaCgyJisU1R1sKAQ88UOZxH/i1r8pO1xAmcB3g7aP77HUwxhCF0O7gXsB1VM873D/ff/edb5mGx5g9bA3XFEMwV61cGZAGDM1E+cO1sdNkb4db5nCOX7vvt98uj+H0B7zua8Qb7F7wu+/tuGEjJ+97m2dObFMciu82n6kjARIggWQjQHEoG+IQhmmhY+h+I/vss88awaVz587mQQsPW+gIw9sFnQd0ms8//3zzoARPH+x7s1gx50EOx9FhHDhggDlWvVo1gcChbxPhKXDFFVdk6fDhAQydRIgofp0UiEcVKlQwx2EfD2STJ00yv/Ewgc5q82bNzG90UqtUqWK2ITZpPv3223lE/O+8847gwVXTgreXSB/ePiKPEIbeffddI5jBfr++fc020gdhDfnBftgF53lz5xpbeIOI3/pgC/t23LCNuZbQ4cdDBo7joRgPVLDnxf+OO+4wYp2mNV7XFIfiuwrOC3EIc3hBfHWXWdRDeCjDftzjuGceffRRI8BCuMC92LdPH3Mc3nP4DXEWwizqKng9uG3iN+YPU9EJ9xOGUOGBGt6FqOsg6sKTCR4YOs8ZBGYMA1VxvEiRIvLG668b+xCJ7Hpo8KBBAfWQfW/DEwrieJvWrc25EEUw4T3S5VUvuOucnKwXPi1dWv75z3+aYbOYn+df//qXGXKk3lfB6nF3nR+qDkQbcLNrfiibEx6GwQlerVrnQfjHnDhgFWkdGOyaw55Xmxcsv6Guufu6+bUV2b3mSDu4oPx16tTJsMFwSbQHOBbqDx93wH310UcfSckSJcyfDikLxRjXBeINhoFrPHr/6FBsr/x98MEHAd5oEGLBX23oumePHiZtbtFIj0da5vzafb/9dnlEnMH6A8Hu61D3ghcjO27kMyfve+WZU2uKQ/Hd5jN1JEACJJBsBCgOhdEB9Gv0ITi4O+jo8OFttr5F13MhVKDziN8QOdChtD2F8HZPxSMMw1LxA8Oz8LCFuOChBDdxvAX+4vPPs3QG8ZCE8+yhJBo/1kgb3lDqZNQY8oBOv4aBqznO10lg8SCJNLnnJ/Lbb+cRNjEfU5PGjR379oS3KkzpUDFNA952Qhiz2fTv18886KCTh3B4Q3/11Vc7drHPjhsc0NlXMQ3H8SYReYNYpPztTjnyiQc6TUe8rikOxXcVnNvikHpY2F44KLtaD+m9DsEXHoLwdMBxCBa4HzC8DL8xhxomjoenA+4le4in+1544IEH5PLLLzceQKiL4L2h8egEtxhSqudhHjbENXjwYBk2bJgRsiCO48EaYVCf2PUl6jyEV9HavrfxoIj41ba99qoX7Donp+sFeHRgQm8I8Kiz8SEAXAekMVQ9btf54dSBENXdc67ZnMqVK2ceiG0+aGPuvfdek55I68Bg11zLmvsaBmu3Ql1z+7r5tRXIW3avOWzAO9b+UAQE1aeeesqzjNk8sQ2mEATr1q3r/OlE0qEYY4glyrmGhz29f/BiBL+98oePS+BlEY6jrEAEdN//OIYyAI9cbHv9RVrm/Np9v/12eUT8wfoDfvd1OPeCFyM77py+773YxnIfxaH4bvOZOhIgARJINgIUh3w6TuE07pjw+a033wzoeEGYQYfP7WaOTpq+7YZnDwQkvCXUePDFH7VlTxKJTh+Gg+CNL+Ir98UXZviTPnTo+VhjomfErR4+9jFsa9og9sBVG0O+1DsJxzEfkT0JLMLBQwBeAej8qj2//XYe0amDJ4I914E94S2GydnD29Q2Hh5xHs7XfZgXAQ+t+htv6OHdoL+xtuPGcTyY2cfh3YC3tNiHrzdhW70YsMaQP3gs2OfE4zbFofiugnNbHML9hXve7eVj3+sox/A20DmB8BuiEO4z9WrBvYkHYog2uFf8yj7qLEwy//XXX5v6AvGrdx7OQd3lrtswfBOejoi/2BtvCDxK8LYf4SFCwVvRrofgQYi6CXUUwtj3NoaYYrJer/R51Qt2nZOT9YJywRxASJsKYtOmTjW/Q9Xjdp0fTh2IYbaNGjUK4GBzwnG3NxnaF3hsIX2R1IGaN79rrmXNbvOC5Teca25fN7+2AvnI7jWHVw3uH3i9aZnCfYBJoPV3sDU8dpAGrzChGMOzxz080y4HsOmVPwy/gtCL62K+ynbrrcYTzJ0GeO3qvF3uY/htxxVOmfNr9/322+UxVH/A774OJ11ejOy4cTyR+wMUh+K7zWfqSIAESCDZCFAcyoY4hLmC8BbP7nhBYMGcGbZ4gyEcpgN6cggZ3NZtcQNizkUXXeS4tduTROKNP+aMsOPw29YHEn3j7g5nT0aNORyQJgz9QDikFx0ozPXhPg/CEB7WMETEPmbvd+cR8xBAVLIfHO0Jb1955RVHDLNtYm4L8NN98P6BZwJEMd0HN3bMyaC/3XFDaMOfHscab/P1S0zgbz8oq1u67WlknxtP2xSH4rsKzm1xCB4W8Phxl1H7XscxDJOx6yoMS8KbfD0P9yaOYzgG7jfcU3rMXuu9Yns72MdRd+Hz1fY+3Iv28FL7GOy46yHMTYSHRYRz39tIm5945a4XcL5d5+RkveCejBr1Kep0/TBAqHrcrvND1YGoUyGo6TxKXpzgDaPDg3EcIiCECH1BEUkdGOqae7V5wfIb6pq7r5tfW4Fw2b3mGFaJ66TtNdZ4cWB7viEerz+EhRDq9/XNUIzhdaTDM9W+XQ788ochg7hnMBQU94MtrKodrDEkHG2piqz2MWzbcYUqc/a5drvvt99934bqD/jd1+Gky10G3HHn5H1v5z+ntikOxXebz9SRAAmQQLIRoDjk0/EL1dBjOBQ6aDq/gIbHpM3uDh/mJsIwJ/VUgRs2hmPgyxmYMwPDA2666SazDTv2JJFwiYYwAxd1HINAo2/dNU5d4wEAE75i6ADe4mLCbMxdoHN72JNRI/3wHEDHFm9y0ZHFcK6PP/7YxIO399qpxISqSC/i8dvvziMm18SDmaZNh78oL7zNg7iGjhyO4WEVbvawj3ThbSQmm8TQNwxPwPxNaguT6WKYHfKLt6fuuNHpRnoxfwqGouHtKjwilCEmxLXfqsMtHRORqv14XlMciu8qOLfFIXhYwAMP3hv6hzrFvtdxf6EOsSfOx7AkzAGCsm7fm7jn8dbdHm5q3w+4V+xJl+1j2EbdZQu32IfhLRhupR6NGL6qX/TC/Y/7vX379qYeggiM+7148eImbe57Gx4xGDKC+x5zjtleRO56wc4X0pHdegGeILDhzjN+e3HBQ6uKYqHqcbvOD1UH4stUKg5guBrid3NC3HgBgTYHXhvwOsVQJJQNhI+kDvTKm83Aq80Llt9Q19x93fzaCqQhu9ccEzvbXiU61AsvT2A/2DVXj6lRI0ea+fEwFEznyQuHMbzonnvuOVOW1VPWLgde+cM+iFK4BzGcDZ5gKmzhmP2H+Qxxb+Fewlfh1qxZY8RBXC+Es+MKVeb82n2//e7yGKo/4Hdfh0oX8uEuA+64s3vf20zxlUD0p3R4LsRFeGVqGPdv3Z+dNcWh+G7zmToSIAESSDYCcScOjRg6VCqVLy9rVq1yGtzsNKw5dS4+/Y4HLu3UaTzPP/98Fpd0iBP4MgnCQKyAUFH0tdfMQxDcw+H6jU4HjqOjh+M6xAkPQXjzhbjQCcKxYC7v8BrCBLV4eMAfBBi4j8O2O214aEMYPIxBHMIb+1/atDFhsQ2xCG+g8SUz/cqN3347j4gLXjp4cMU2/jCPETyJlBceDtG5xT4wwAMfhC88nKLTiv14g4v0YE4FfZiELTxwId14E46HI3fc6KCDN2wgb+h4avrdfGEPwxbwdlrTGs9rikPxXQXPmDbN1F8L58/PlfKEe0XvdV3jodC+1/XeU3EG5RueOTofGOoM+96EJwg8U/QB2b4fcK+gDrD36bbXvYVjGLqD+DAcDcPLcN/qfEM4jvnTtB4q8+mnZhLnli1amDjc97bOP4Y6A3UhPJ00fne9oPnWOie79QIEFxWtNE5de3HBPDZa7werx93cQtWBOI4J+3HNIJ4jDW5OKePHG48y1H9ghfIAjxOEdceHfcHqQK+8ab6xtsua7g+WX4QJds3d182vrYCd7Fxzr7T36d3beOOAEY4Hu+Y6j53ed1jjmkD8DIcx2jacgxdHGD7ldY47f0gT/nDfo310DyfV47qGuIV5BjWNmBcLHkfuuEKVOb9232+/uzyG6g/43deh0oV8uhm5487ufa8sscbcbOiLQRjEb4iu9ryT7t/2udFuUxyK7zafqSMBEiCBZCMQd+LQhPHjzcPV0sWLTeMbbYOa0+ehc+UeZoU48WZWJ07WNKCjrGHnzpljOmp46w3PF7zRgy0NizXenNq/sY0HHDysobPkPub1Gx1UeM7Yx7zShre4SAfCIY12WjDMCh0r2wa2vfbbeYQNeO60OflFIZyDfe60Yx8eWOyHVo0LnV71tFJ2egzn4S2ocrLj1jBYw3PKzQD79TwNC/uwob/jea0dReSNS/wRgCgEcXv6yblm8qos2fe6172HexH7kT6/415pxz0Z7F5x31tqA3Gg3kB9564fEQb1jFc95HVv437Fw1moesErX4grmnoBD6+YhNvvy09eXJB29dRRDn71uBe3YHUgbKPu1GvhxQn5h/elctU0YO2OL1gd6JU325Zd1uz92PbLL475XXOv64Z9Xm2FyaPVFnidi7j8rrk77Sibes1CXXN3Xt2/w2GM9hd/eq77HHf+EA5iGTyHkD49L9gaNtDfUJFUw7rjwv5gZc6r3cc5Xvvt8oj4w+kP+N3XodLlZmTHrXnF2q8MuDkEuxdQPuzwCIs/jcf9W/dnZz2of3/TpsDDmwsJkAAJkAAJ5DSBuBOHVixbZhrCcaNHOw1udhrWeDsXb/Lwmed4S1es0gOPJwwNwRwCXsJMrOLJr3Y6tmsnlStUkLS0tJyuG2g/CgJ4AIM49NvJT8Tn13KaTPnGwy+G2k2aODFp6+1kul6xyEu8XnMIffAMhoddLPKZ0zbYHwgc6hcN79bNm0vVr76SEydORNEi8RQSIAESIAESiIxA3IlDx48dk+qVKsnPDRokROcn0sYec/xUq1o1KfMGFphHAV/F0YmuI+XD8P6dyd07d5pOYqumTSO7yxk6Vwn8VLu21Pr2W8erg2Xav0wnAhsIfvBUTIS0Mo2xKWvxes0xUTbmKHR74cbrdWd/IHvlcduWLfLNl18KXgpxIQESIAESIIHcIBB34hAyPaBvX/P2PfXk173itePDdGWv40N+kfFT9/J5c+bkRt3AOKIkMCklxdRfo0eMoKDgmiSX93xk9zx5kRfLQP4tAz26dDFtCb7wx4UESIAESIAEcoNAXIpDhw4dku+qVJGa1avLFms8PjtJ+beTlN+v/ZzUVDOcrFmjRpKRkZEbdQPjiJLA8ePH5ac6daRKxYqy7ORXj/J7+WX+WXezDLAMsAyEXwamTppkhCF6DUXZEPM0EiABEiCBqAjEpTiEnCxeuNA8DNepUUPifXJqdnjC7/CQVeSs4IkCoaHOd9/J7t27o7rReVLuEsDkp9UqVZJqX38t06dMoQcRPYhYBlgGWAZYBkKWgYP794t+tRcvGQ4ePJi7jRdjIwESIAESyNcE4lYcwlXBl38w/xAm4O3Qtq3Mnzs34EsRFBoiFxrILP6Z4esr27ZulWmTJ0vThg3N28N6tWqZr7rl69oqwTIPgaju99+b6/dzw4YyZeJE2bRhg+CrM/wjA5YBlgGWAZYBUwZ27JB1a9YIPsRSr3btzDajQQMzb12CNXtMLgmQAAmQQIITiGtxCGwxMWSHX34xAhG+AsQ/MshPZQBfKRn022/8OlmCVrQYIos51OBBlJ/KLfPKepplgGWAZSDyMvB91aoyZuRISU9PT9BWj8kmARIgARJIZAJxLw4p3H1798rkCROkX69e0rVjR/6RQVKXgcEDBsjs1FQ5cuSI3gJcJzCBo0ePytzZs2XY77+bOgz1GP/IID+XgZ7duvEeYD3AMnCyDEAQwsTT/GR9Ajf0TDoJkAAJJAGBhBGHkoB1QmWhXLly9FZJqCvGxJIACZBA4hAoWrSo7N27N3ESzJSSAAmQAAmQAAmQQJIToDiU5Bc4muytXLlSTjvtNPnhhx+iOZ3nkAAJkAAJkIAvgTlz5kiBAgXkyy+/9A3DAyRAAiRAAiRAAiRAArlLgOJQ7vJOiNg+++wz03H/85//LFu3bk2INDORJEACJEACiUHgww8/NG3MGWecIStWrEiMRDOVJEACJEACJEACJJDkBCgOJfkFjjR7cPOHKIS3uvj74IMPIjXB8CRAAiRAAiTgSWDnzp1yzjnnOG3Miy++6BmOO0mABEiABEiABEiABHKXAMWh3OUd97E1aNDA6bRDHMLwstTU1LhPNxNIAiRAAiQQ/wRq164d0MagnRk1alT8J5wpJAESIAESIAESIIEkJ0BxKMkvcCTZw6dTr7766iwd90cffVRyoqBEkjaGJQESIAESSGwCaGP+/ve/Z2ljbr31Vn66O7EvLVNPAiRAAiRAAiSQBARy4pm/QBJwyZdZ6N27d5ZOuw4vwzEuJEACJEACJBAtgWBtTMuWLaM1y/NIgARIgARIgARIgARiQIDiUAwgJouJwoULyz/+8Q+56qqrHJGoUKFC8umnnwo77slylZkPEiABEsgbAqVLl5YnnnhC7rrrLqeNeeutt6Rhw4bSr1+/vEkUYyUBEiABEiABEiABEjAEKA6xIGQh0L17d6fjPm7cuCzHuYMESIAESIAEoiVgtzFDhgyJ1gzPIwESIAESIAESIAESiCEBikMxhJkspthxT5YryXyQAAmQQPwRYBsTf9eEKSIBEiABEiABEiABikMsA1kIsOOeBQl3kAAJkAAJxIgA25gYgaQZEiABEiABEiABEoghAYpDMYSZLKbYcU+WK8l8kAAJkED8EejZs6czdJnDyuLv+jBFJEACJEACJEAC+ZMAxaH8ed2D5priUFA8PEgCJEACJJANAhCE9EuYFIeyAZKnkgAJkAAJkAAJkEAMCVAciiHMZDFFH3RbbwAAIABJREFUcShZriTzQQIkQALxR4DiUPxdE6aIBEiABEiABEiABCgOsQxkIUBxKAsS7iABEiABEogRAYpDMQJJMyRAAiRAAiRAAiQQQwIUh2IIM1lMURxKlivJfJAACZBA/BGgOBR/14QpIgESIAESIAESIAGKQywDWQhQHMqChDtIgARIgARiRIDiUIxA0gwJkAAJkAAJkAAJxJAAxaEYwkwWU7t375ZZs2aZv3379iVLtpgPEiABEiCBOCBw/Phx2bNnj/nDNhcSIAESIAESIAESIIG8J0BxKO+vAVNAAiRAAiRAAiRAAiRAAiRAAiRAAiRAAnlGgOJQnqFnxCRAAiRAAiRAAiRAAiRAAiRAAiRAAiSQ9wQoDuX9NWAKSIAESIAESIAESIAESIAESIAESIAESCDPCFAcyjP0ORvx4sWLYxIBCsjOnTvl2LFjEdmbNGmSDBwwQA4cOBD0vJUrV0ZsO6hBHiQBEiCBEARiVT+GiCaiw1v3HpHfZm6UwSmz8rxO3L9/v2zYsCGi9IcT+ER6mmxZ3FG2Lu0WTvCQYTJOHJejBzfLH39khAwbToATJ07I8uXLwwmao2FyonyiLd9zYKccTz/VlqcunyjDZ/aVuQvm5Gh+aJwESIAESIAESCAxCFAcSozrFHYqMZl0sWLFZODAgeac2bNnS8MGDXz/OrRvH9R2k8aN5eEHH5TKlSoFDWcfPHr0qDz68MPmvC1bttiHsmyvXr1aihQpItOmTctyjDtIgARIIJYE3PUjbM9du0eq954vHVNWB0R1LD1D6g5YJDX6LJBdB44GHMuJH/UGLZbbvh4mFVoNz9M6sU+fPvLOO+/I3r17nWzuXjdSlo8r4/ytnPS1bF7YTtKP7nfChLOxe/0oGfdzAZnS/h/hBA8aBp2XGd1uN/Y2zPk5aNhwD8Jm48aN5YsvvpC8mCjbXT537d8mbYf9FPTvUFrwFzCa9/YjGsprte6Ter2/MruOHk+T12s/IK/WvFdq1f0uz/Ks6eOaBEiABEiABEgg7wlQHMr7axCzFODLYv/5z3+kQ4cOjs0qlSsbkQYCj9dfqRIlnLBeGyVLlDDnhRKR7HMXLlxoznnu2WclnAK2fv16ufTSS2Xy5Mm2GW6TAAmQQMwIeNWPMP5934VGlPmqa6D3xKIN+8x+CDYH09Jjlg4/Q++3nGbig/dQXtWJ7du3lxtvvFHS0tICkjm9881GhIGwY/9B5Dl2eFtA2GA/1s380Zy/4PdXggXLcmzj3GYyq9cDsm1pd+fYieOHZVzT02Xcz6fJng3jnP2x2ChTpowR6DIyYuORFE6avMrn0Bm9jKADUcfrr1idhyTt2JFwzEuVDh8ZG30mtDPhl29cYH4Xr/+0aafzIs9hJZyBSIAESIAESIAEco1AOM/ukSamQKQnMHxsCMBj6MorrxS7Q7tq1SqZOXOm+Xu1SBEj2tSvV8/Zt2nTpqCRHzlyRHbs2BGWyKOG+vXta+Ip9/nnuivkunTp0nLFFVcEvK0OeRIDkAAJkECYBLzqR5z6xs+TjSjTcXyg51Df6evN/v/9lBJmDNEHO5Hxh9xfdaSJb9nmTG+c3K4T58+fL2eccYa0bds2ICPpxw44gtCOVQPl8J5lsmlBG2ffxnnNA8IH+7FwyGvmvHUz6wYLluXYzB53m/O2LesZcOz4kV2Cv1gv8Hg97bTT5Keffoq1aV97XuUTnkPzV88wf/V6VTRiTpX2Hzr7Vm1Z4mvPfQAi0q792522fPjMPsZeza5lTdC8yLM7jfxNAiRAAiRAAiSQtwQoDuUt/4hix9vcBg0ayIcffiilSpUSDMnSZerUqVKgQAEpWbKk7gpYY86ggo88YkSbGTNmBBzD79KlSsmElBRp1KCBvPzii5KSkiK7du0SCDwVv/zSCV+ndm35snx52bhxo1SvWlVeefll+axs2YD5KRAGXkqtW7Vyztu0caPU/P57eaVIESn66qtSvVo1wT5dRo8ebdJfKYLha3ou1yRAAiQQTf14PD1D7vpmuBFlpq8MFBlq9sv0KKrUba4DFyJOvxkbpFjTyfJkrbFm3WvKOueBGwFTV++Wd1tMNcfLtE+Veev2yMe/zJDWo1c6djbuPiwVOs+Wp2qPlbebT5HeUzOFqLu/GS7HT2R6q+REnZiamiolSpQwbcgvv/wSkO5nn33W1MFbt2510omNvZsmGGFmfNM/CeYMwpJx4pjx2IEXEeYQ0mXPxvEyt/8zMrnd32R6l3/LigkVJP3YQT0sUztca2xhmBoWdEA2zW8t07vcIlN+vUqWjf1Udq4eJLP7FDTrQ7uXyLwBzwniRlypPe83v2Fzz4axJtzqKdUc+5iDaPPCtmY/7M3sdoesnlpd4GWky/rZDc3xw3tWyMqJX8m0jv+UGV3/IzvX/K5BzPrhhx+W8847z8y5F3Agyh/RlE87qm87lTRiTrexLe3dZnvRutnGM+jjxoWlbo/ysmzjAvm+y6eiXkJ7Du4SiEA4pkuLQTVP2muhuyTWeXYMc4MESIAESIAESCAhCFAcSojLJGb+g8cff1xuvvlms/3NN9/IxRdfLNqR/+CDD0zHvmXLrB1HZHHp0qVGsIFoA/d1e8GcRNj/RtGiTpg5c+bI+HHjzO93337bBMckpQj338KFpXChQkZseuShh8y+Lz77zDGJ8AiH87Fgcs0nH3/czEP0VcWK8sH775vj773zjnMOhCiIWxhelp6e80M4nIi5QQIkkPAEMD9MNPXj4k2nho5NW7FTMJRM/15tNMmIRp0mrDF8MjL+kIpd55h9/62XIhW6zJZ7q4wwv8cszBRUJi7dbn5jKNqdlTNFJxWfGg9dauxs2n1YHqkx2oTTMAiPv7ebTXGuRazrxKFDhxrPoO7duwvmtjn33HMF7QiWdevWmfr3sssuc+LXjQ1zGhthBvP7YEGnYd3MH8y+lOZny7HDO8z+jfNamH0TW18sC39/1Yg9EHSWj8/0IIWHjw5JU2+fVZMqOftUABrf7Eyzb9fa4QKvJD1H15PbXSl/ZJyQ5ePKmmPLx2e2PRCGFgx+yexDumZ0vfXksLMCsmxsKc2OzOh6mwmT2uOeANuTfrksQCwrW7asYfLzz9mfzyja8qmJzvgjQ96p97gRc6YtCRxCN3vFZLMfw85er/2g2cZwM/zuMqaZMTFtyVjzu0LrN9WkYBthcEyXWOZZbXJNAiRAAiRAAiSQOAQoDiXItWrVqpXpqKpnDTr6EFMqVKhgcnDNNdeY3wMGDPDMEb4cBsEGQ8vcS4mPPzbHnnjsMRk5cqSsWL5c8NUWeP7gnNq1aplTMDwNv/H3TaVKcujQIRk1cqRzLgqTezJqdIp1OBs8k7BgPg3YgLCkQhDOPfPMM00eIExxIQESIIFwCURbP/abvsERc1Sgca9nrsr0KILHEI691WyKHD1+wiQNXkXY12LEcsEE1k/UHGN+NxqyVNJPZMikpTvkrpMi0cj5mZPzf9ZxlgnzcZvpcigtXeBFVPiH8WZf7d8WOVmOZZ2IehhDjtFmYKgwlnvvvdfUufgaZadOncyx22/PFICcREDcH/62EVEgnsArSL1/UpqfIztWZbY3h3YvNZ5EE1pdKEf2rzWnb17wizkPXkBY3JNRH9w53xFn4C0EcWfNtO+dfRCdIAJtnNv0pJ1HjecSwmGZ1etBs3/L4k7m94Y5TcxveAyl7V9v9mkakHYsJ9KPOIIRPIYO7lwou9YMdeKER5QuP/zwg2Hy4osv6q6o19GWT41w8671RsiBmLNj76mPPODLYx83ei5TCBrdTE5kpMvslVPkjTqZItGUxaONiW5jW5gwzQd+b37rZNSwt33vZo1GYplnxyg3SIAESIAESIAEEoYAxaEEuVTPPfec6ai++eab0rVrV6lSpYr5/eijj5o5htDpxx+GIngt9X780QgyVU6+KdYwEGcgCkGs6dUzcD6Hcl98Yfb37dvXBO/SubP5XeSll5wHjHnz5pl9jxcsaN66uiejHj1qlDn+7NNPS4/u3aVFs2ZmWBniq12zpibDrC+55BKTB3wthwsJkAAJhEsg2vpRh449U2eclGo30/l7o0nmPEQQfnQy6v/Vn2AEHExc3XbMSseL6L6qI2Tl1gMyYt4WcxxDxXRo2JFjJxwPoo27Dsv2fWkmDOyu2X5quJU9GbWd51jVidOnTzd161lnnWXaD7QhN910k9k3duxYqVGjhtnGsCL3Mq3TjUY8Uc8eePBAGIKwosuyMSVNGMwNtD71J+OpM6HVBWafDjtzT0a9bGxpc3zh0NfVjOxeP9rsm/Lr3519S0d/bPatnHBqeHNGRrpJA9KCdKAjg3Pwe8uiUx9k2Ld5stk3vtkZJsy+LdPMb4Q7sD3zJQQms8ZvFZA04mbNmhkmt9xyi+6Keh1t+dQIJy0cYcSd4g0yJ4/W/RB/IPB80vh5ST+R6XGbKfxkikPb9mTOKVir22cm3LCZvc2p7smo1V4s86w2uSYBEiABEiABEkgcAhSHEuRa3XHHHaajikkr8dl3/Zs7d675soyKQ+joey0fFi9uRBoIPPaCCash1EDcgSeQLigYGDqGYwsXLDC7q1apYn63ad1ag8ngwYPNvnfeesvsc09G/UPduo59fL0MXkQVypUz58E7yV4wpAH5wFtsLiRAAiQQLoFo60dnMmrXZ+x7nZwDSCej3maJOg99O0oe/36MFG08Ser8tkjW7cysN2v3z5yjqHrv+U6yJyzJHGb2cI1RRpwYNnezEYcK1T01NGj/keOOd5FORq0GYlUnDhw40NStqF/HjBnjtB9oR+A5BI9UHMPLBnuxJ6Pev22mHD20xczRAzEFoo0u8MLBvpQW58mkNpcKBKVFw4qZeYE0jHsyav0C2tYlp9qklRMrGjsLfj/l4Tqz+51m37ZlPdSUEYRMfM3PEQhF8FbCb/wdPXRqziTYxr5pnW4w5+rQN3z5TJcNsxuZMPN+K6S7zBpDtMEEXrnZXaItnxpvp1FNjLhTq1vgRx5+Gfqj2Y/5g3SZtWKS2fd+/adMmUNbDlEJIhLmIsLinoxaz41lntUm1yRAAiRAAiRAAolDgOJQglyrZ555xnRUn3rqqSwpxkU855xzzPHhw4dnOR5sMuqhQ4YY8QZDy+xl65YtZj+GfulnjV975RWzb/q0aU7Q8uXKmX0/N2li9rkno1bvoz69M99YOid6bFx44YUmD4MGDfI4yl0kQAIk4E0gmvrRnox6hmsy6u/6LDAijk5GjUml4e0Dkcdv+axDqgnTdPhyEwRzFBVvlfl5+k9+yfwIAOYvgp13mk91zGBIGvbdU2WE43GkB2NVJ06ZMsXUrRA7Jk2apOadNb7KhWP333+/sw8bXpNRr51e04gpmHRaF50nCEPF/BYdjqaTUU9oeb6xA28hLMcOb5OJbf5i9q2dUcfsy0g/KvD6gcBzeE8mVxzAUDLsw9AyLBCu8Bt/GIqmy9zfnjX7dN6jJaM+ML8x15Eui4a/ZfatnlJVd5l1kyZNDJM777wzYH80P6Ipn3Y8fpNR/9CzghF9uo/L/PgD5iaq3qmE2fd91zLGBIahQRgqWut+gVcRFq/JqLE/lnk2EfEfCZAACZAACZBAQhGgOJQgl6tOnTpO537y5Mkm1RgS1rFj5pdiHnzwQXO8p2toGAIGm4y6UcOGRtzBV8rsZfz48Wb/Oycno8Yk1vAiwt+XFSrIksWLpVPHjuY3voKGr5dhcU9GXePbb02YKpUrm/mFUOAQdsrJPGic8CLCwwn+1q7NnLNCj3FNAiRAAsEIRFM/2pNRw3vHXl5vEjgZ9dodh4yAAxEHE1ZjOXwsXSYv2yFb9mTO4aPzD0EQQpivT85HhHN0Mmr1SHr0u9GycMNe+WXMSrm9UtbJqGE/lnXiwYMHRYWmQoUKGduIY+LEiaZ9wFxzqHtvvPFGkzf9p141+OqXLjtXDzZiCoQYeBJhmdz2CrMP4VHHw5sHgs3+rdPNca/JqPUcfNFs78YUwYTXKvBgMmosmXMZZYo+O9cMkf3bUs1+TEKNsJiUGsvRg5udc+FhlH50n+gwNgyBSzuwwYTTyai3r8gcKo2d8CqCLZ0/yQQUcYbavf/++7or6nU05VMjCzYZdeP+1YzwA0Fo1ebF0rhfVfMbYtCpyajHmX3lWxdTk56TUeOgDi+MRZ6dyLhBAiRAAiRAAiSQMAQoDiXIpcKXa6666irTgcfndd99911BJ3/JkiUmB/Xq1TPHMKGkewk2GXXJEiWMeAMPIntxJqM+OS8QPncPYQhCkIpEuh7w22/mVPdk1Ng5Y/p0J/xjjz5qhq/hPExobS/6tRxMiJoThdKOi9skQALJRSCa+lEno37+x/EBMDCxtE4irZNRwwvovRZTHYHo/mojne3lW/ab84efnHMIYhD+Hqw+0vEc0smoN+85IvhcvYbBumz7TI8jezJqGIx1nVi/fn3TRkAEuueee+S9996TL7/MnMcH3qEXXXSR8UC1h/uqV83SUR85jI7sW+MIMRCKsKya/I2zL6XFuc6kz5hMGot7MmrswxfEVAzCGp+zn9rhOrNPv4AGUUk9hxBmbv+njb1ZvR8y4XQ+I+xcOKRogD2ER1pUaLIno9ZJs9OP7nfOSTuQ+YLDRCAixYsXN7z8PvKg4cJZR1M+1a7fZNQ4PnnRKEcMgiD0br0nHM+hU5NRtzRhmg38zpj0m4waB2OZZ00/1yRAAiRAAiRAAolDICeewwskTvYTK6WbN282Xyd7/vnnpUyZMrJy5UonA+h8onNfuHBhZ59uzJs7V1q2aOF8Wl73Y929WzfzVTJ82theUlJSzOTR+Aw9Fp2MGhNajx0zRqpXrSoYQrZg/qlhBHg73aplS+ncqVOAwIM5ixo2aGAEoVo1a0q3bt0E6bUXTEKNhxYc40ICJEACkRKItH5MXb1bGg5ZKqPmn5qjBnHiC2JNhi6TliNXSNrJr5Jh/+Gj6YJhYZV7zJXynWdLvYGLBZ+ut5cBMzdKhc6zjacQhCAIRk2HLRPbMwmCU6XucwWTYWO4GryM8HUzFZnUXqzrRDT2sFm0aFEpUqSItGvXznzMQOOrXr26qYPxIkCXLYvay8qJX8mB7bN1l/zxR4b5qtjKSV87k1JjHzx2ICItGPyyLB1TQjYv+tV8XQwnHtwxz9jZtuzURw9OpKcJhnJB1IHHEeY3WjezrmyY09iJCxsYhrZk5PvG9v6tmWlbP6uBEaQwFE0XfMUMXydbNPQNWfD7K7JmWg0zVE2PHz+6V1ZNrmzi0I4PxCcMMVuXWi+gzcI5mIgak3bjS2+xWCItnxrnjn1bpeuY5jJoatcsaUSYsXMHS/0+lYynEIaQQTDqNralHEo7YExMXzpeOo9uKis2ZX4J71DaQWOv/6QOWezFOs+aB65JgARIgARIgAQSg4D2kWKZWopDsaQZgS1M5PynP/1J0AmN9QJRCB4/EH5yYnnhhRcEX3TJiQKZE+mlTRIggcQikJP1Y06QyO06ER8kgDiAFw/5fZk1a5acfvrpnvMz5RSbvC6feZHnnGJJuyRAAiRAAiRAAtERyIlncYpD0V2LmJz17bffyuuvvx7wRjgWhvGVMYhD+LpNrJchQ4bIfffdJ3v27Im1adojARIgAYdATtWPTgQx2sirOnH16tVyww03CL6CmV8XDI9+7LHHpEuXLrmOIK/KZ17mOdchM0ISIAESIAESIAFfAhSHfNEk7oHffvtNMAFmrBYUEnyNDH/25+5jYX/s2LFSs2ZNOXIkc1LXWNikDRIgARLwIxDr+tEvnmj353WdiCG/FStWlHnz5kWbhYQ9Dx95wDxMU6ee+ppcbmcmt8tnPOQ5txkzPhIgARIgARIgAW8CFIe8uST83py4sDkBJVHSmRN5p00SIIG8IRDP9U68pC1e0pGbJSRe8pyb6cjNuHLzWjIuEiABEiABEiCByAnkRL+Aw8oivw7mDFyMRo0aGbf+s88+2/myDCZqzu9/mEvpiiuukJIlS8r27YGTwEaJm6eRAAkkCIEePXrIHXfcIfhSY36vC+38n3baaXL55ZcLPj2+adOmoFcTHx347LPP5G9/+5uZm862k9+30d5ef/31gq99Hjt2LCjH2bNnmw8/XHzxxSyLrr7JhRdeKE8++aRMnDgxKEMeJAESIAESIAESiE8CFIfi5LrgQuDz9OikP/LII1KtWjXB5+n5l8mgVq1a8sYbb8iZZ54p11xzjWzdGviFoTi5jEwGCZBAjAlUrVrV1Iu33nqrfP3116wTrXahdu3a5pP055xzjhHP16xZ40kfQ8VuvPFGIwq9+uqrZigv25ZT7Sva24IFC5py9uKLL/rO2TdmzBgB67/+9a9SqlQp+fHHH1kerfKIycyvuuoqM5k3vozHhQRIgARIgARIILEIUByKk+s1dOhQ0zHFhJRc/AngjSTe8n788cf+gXiEBEggKQgsXrzYPGgWK1ZMMDcKF28C8+fPl/PPP19eeuklzwBffPGFwMtoxIgRnse5M5NA48aNTTvcuXPnLEgyMjLk2muvNR5GO3fuzHKcOzIJHDx40Hxg4rLLLhNscyEBEiABEiABEkgcAhSH4uRaFS9eXC655JKoHoAwmfOWLVtkx44dcvz48ZjlaP/+/WaoAoYjoGMci+XEiROCjjWGQETbcYSH1UUXXRSL5NAGCZBAHBOoW7eueVjfvHlzxKlMO35Ctuw5Yv6OHj8R8fl+JxxMS5eNuw7Ljv1pkn4iNvUiGuJdB48au3sOBR/W5JeuSpUqGc8gr8n94c3hJxz52dP9x9P2yJF9q+Xooa3yR0ZsOMIO7MEu7MdqyUg/KmkHNkja/nVy4vjhiM3iOlx33XXywgsvZDk3NTXVlMVu3bplORZqx4mMdNlzcIds37dJjhw7FCp42MePpR+VXQe2mj9sx2o5fPSgSeveQzslI4prPnz4cMNq0KBBsUoS7ZAACZAACZAACeQCAYpDuQA5nCjw6Vx8zj2SZfKkSVK6VCl55KGHzGfm8an5Jx9/XKpVrSrLly2LxJQTFp+07dmjhxR7/XXHJuz+t3Bh87WyaN+Ybtu2TRrUry/PPftsgN133npLevfqFZGohXkhMPyOCwmQQHITKFu2rBnGE0kup63YKSXazpA7Kw+X274eZv7u+ma4fPprqsxctSsSU05YiED9Z2yQoo0nOTZh+6FvR8l3fRbIxt2RCxEwDiGo+Yjl8lTtsQF2C/8wXtqMXikHjoQv9rdq1crUi+vXr3fSrRunn366VKhQQX+GXGecOCYb57WQ6Z1vknE/F3D+Jra+RJaPKyNpBzaGtOEVAILQipTyAju23WmdbpANc5rIifTovlq5f9tMWTD4JUlpfvYpu01Plzl9H5eda4Z4JcV3H4Z148+99OvXz/CdNWuW+5Dvb4hB7Ub/ICVbPyvvNX3Y+avW/X0Zu2CAQDSKZlm+eZ40GPilFG9W0LH5QfPHzL4lG2dHY9KkJWXRYKnS7V3HJtJcus1z0mHsT0aACtfwunXrDKvu3buHewrDkQAJkAAJkAAJxAEBikNxcBGQBL8OqVfy0tLSpOKXXwaILBBw7D8IRm1at5ZILjAeKoq+9lqAHdsmtp956ikZN3asV7J892Gehiceeyyo3beKFZMNGzb42rAPYJ4HikM2EW6TQHISKF26tGCS23CW4+kZUr33/ACRRcUhew0xB2HDXXYeOCpvN5sS1C7EpwEzIxNMIFQV/G50ULuP1xwjC9bvDSupwcQh1JeVK1cOy87hPcuziEK2kIPtlObnyNalXcOyp4F2rOwvE1r++ZR4Y4lOan9qh+vk4M4FekrINdq3lRO/CmoTtucP+p+kHzsQ0h4C+LXFEDrAccGC8NKXsuh3+aD5KfHGFod0u3qP4hGJLvDi6TiufoB4o7bs9a+jf5D0E+ELi3sP7ZJve3wY1O5HLZ6QiUuGhsUQfQmwojgUFi4GIgESIAESIIG4IRCJdhBuounSES4pK5xfh9QKYjYx78ZnZcoEFVpsQad1q1ZuE56/McEzvIPsc/22H334YYHXUjjL2DFjwrKJuF5+8UUzNC6UXYpDoQjxOAkkB4FIxKEKnWcHFVpsgahyj7lhCeeH0tLlv/VSwrY7ZHZ4w9/mrt0jEJTsNPltwztpxZbQwkYsxCF4BE365bKQYkummHOabFvWI6yCtnP1YBnX9PSw7CJ+DDcLZ1k29tOwbCK9c/o9KRlheOr4tcWRiEPwwLHFmmDbFTu9LgeO7Asnu/LLqNph22094vuwbGIIGdIQLI32sanLRoW0S3EoJCIGIAESIAESIIG4JEBxKE4ui1+H1J28rl26hC22qLizcOFCt5ksvzE8TcOHsy5cqJDs2b07ix17B+ZAevrJJyOyW6FcOduE5zbFIU8s3EkCSUcgXHFoYOrGsIQWW4DBMLFQS40+CyKye0+VEbIpxBCzw8fS5fkfx0dk98X6E0LObxQLcWj+wBfCFlsguExodYGZOygYx+Npu2Vim79EZHdOvyeCmTTHdq0ZGpFNpHf97IYh7fq1xeGKQ9v2bpQPWzwettgC4aXFsOoh0wVRxhZpwtmevHR4SLutRnwfkd0SrZ6RnfuDfy2U4lBI7AxAAiRAAiRAAnFJgOJQnFwWvw6pnTxMNh2ud48t8Hzx2We2mSzb8+bNi0jAUdvt2rbNYsve0aply6jsLlm82DaTZZviUBYk3EECSUkgXHEIc/TYwk842y/USwnKbOveI3J7pcw5i8Kxp2F+GBC8/uo7fX3EaYXtEfO2BE1vdsWh/VtnRCy2QHDBHELBltVTv43K7u71Y4KZlZk97o7Y7sTWF4ec18ivLQ5XHApn2JeXsLNlz7qg+XXPBeRlw73vq05vBLW568A2eb/pIxGJQ4ij64Sfg9qlOBQUDw+SAAmQAAmQQNwSoDgUJ5fGr0NqJw9DuVR3tvBlAAAgAElEQVSYiWSNYWD48pjfUr9evajsvvfOO34mzf4iL70Uld1QQ+EoDgXFzoMkkDQEwhGHlm/ZH5XYAsFl8Ub/4Ty9pqyLyu4jNUZLRsYfvtcAE2OrkBTJumz7VF+bOJBdcWjVpEoRiy0Qh6a0/0fQdM3oemtUdjFkzG/B18gQdzR/8DgKtvi1xeGIQ5gTqFSb5yIWWyC4/J7qP4fT+p0ro7IJuxt3+Q/RGzanZ1R2y3d4JRhCoTgUFA8PkgAJkAAJkEDcEqA4FCeXxq9DaievU8eOUYktEJLmzZ1rmwrYLvHJJ1HZLfjII4I5kLwWiFGRCFh22C9DfFWH4pAXce4jgeQjEI44NHjWpqjEFggz/ab7Dy37vu/CqO1u35fmezGedn2ZLFyBqPCP431t4kB2xaF5A56LSmyBQHP8qPek2fjqWbhzDbmFnlm9H/bN787Vg6JO67qZP/jaxQG/tjgccWjHvs1RiS0QcVoOr+GbLgwPQ5ho/qYsHeFrF19Si8Ymzjl01H8eLIpDvsh5gARIgARIgATimgDFoTi5PH4dUjt50Q7TgvAyZfJk21TA9rtvvx21kHPw4MEAW/oDE1zbgk8k26VLllQznmuKQ55YuJMEko5AOOJQtB4+EGV6Tc362XeFWKnb3KjFoS17/D/J/mD1kVHZfbbuOE2a5zq74hDEGLdAE+7vtP3eHCEahWvDHW5G1/945hM7ty7tFrXdVZODf7XNry0ORxzasHNV1GJLw0EVffM7Zv5vUdvFuX4LBKloxaFdB/znHaI45Eec+0mABEiABEggvglQHIqT6+PXIbWT16N796gFl2Dz+ETy9TNb5MHn6TMyvD8JfeTIkajTWiXEJ5cpDtmlgtskkLwEwhGHRs7fEpXYAnEIE1n7LT8OXBy13d0Hj/mZjXgyavUs+l/9Cb42cSC74tCCwS9HKbicJieOH/ZM2x8ZJySl+dlR2Z3b/ylPm9i5e93IqGxCgNowp7GvXRzwa4vDEYf2HtoZtdjSdlQd33TNWDE2arszV/p7nHUY+1NUdjFP0dHj/t5xFId8LyUPkAAJkAAJkEBcE6A4FCeXx69Daidv/vz5UQkuTz7+uBw9etQ2FbCNOX5s0Sfc7U9Llw6w4/6BOYnCtWWH69bVf+4FxEFxyE2av0kgOQmEIw7BS0cFlEjXG4N8WWzonM1R2Q01/KtS9+g8kqr2nBf0ImdXHFo388eoBJcZ3W4Pmq7ZfR6Jyu6qyVV87eILaNEOV9u3eYqvXRzwa4vDEYdwPubjicYbZ+yCAb7pgpdONDZxDiad9lsmLRkWld2q3d/3M2n2UxwKiocHSYAESIAESCBuCVAcipNL49chtZOHi/X2m29GLLjUreP/RhL2N27cKI889FDEdgcNHGgnL8t23z59IraJeYwwJC3YQnEoGB0eI4HkIRCOOITcvttiasRCzoetpwcFdTAtXe6vFvkQsI4p/hMAI8Lxi7dHnFaIXvPXec/ro5nIrjiESZ7HNzszYiFnw5wmmgTP9eaF7SK2CeHn0O6lnvZ0ZzSeTtM73yR//OHt7ap2/dricMWhgTM6Riy4fNTiCTlwJPj1/WlA+Yjt1u1XVrPluT5y9JB80urpiO0Ond3d057upDikJLgmARIgARIggcQiQHEoTq6XX4fUnbzx48ZFJLjAa2jrluCfQEYcdWrXjsjuW8WKybFj/kMnYBPeSq8UKRKR3UYNG7qznOU3xaEsSLiDBJKSQLji0Ow1u+WOCD47j7AzV+0Kyazj+NURCTlP1xkrEJWCLWh0IUxF4uWEL5yFWrIrDsH+ipRyEQk5U9tfIyfS/YcXwWZGRrpM73xzRHaXjvooVHbl4M6FEYtZO1b6z7+jEfq1xeGKQ4ePHpQybf8bkeDSd+ovGr3veuWWhfJ+s0fDtouwyzfP97WnB/pPaxe2TXgiwTMq7Zj3MEK1SXFISXBNAiRAAiRAAolFgOJQnFwvvw6pV/JatmgRluCCT9hPnDjRy0SWfWlpaVKqRImw7P63cGHjbZTFiMeOVatWSeFChcKy+1nZsnL8+HEPK4G7KA4F8uAvEkhWAuGKQ8h/5wlrwhZcgk1EbbNEA1m+8+yw7D707ShZscX/C062XXzN7Lkfxodl95VGE+XAkdD1YizEIQg94U5MPanNpXJw5wI7W77bh/eskEm/XBaWQJTa837fOYzcEWxb2j3s4WWhJqJW235tcbjiEOys2rpISrR+JizRpfHgSpKRcUKjD7oet3BgWDYh4gSbiNqOBHH/PKRKWHZLtn5WMOl2qIXiUChCPE4CJEACJEAC8UmA4lCcXBe/DqlX8nDROnfqJJgQ2p6rx95+4fnnZfKkSV6n++47dOiQVK9a1dcm7Bd//31Zs2aNrw2vAytXrpR33norqN3aNWsK4g9noTgUDiWGIYHEJxCJOITc9puxQR4I8jUwfClswEz/Sai9iB1Pz5B6gxbL7UE8k16olyKLN+7zOt13H+ZK+qDVtKACUYm2M2TXAf/54mzjsRCHYC/96H5ZPOK9oELOjK63ysEdwedAstOGbXj6zOx+V1C7i4a+IZhPKJJl+8p+AqHK/bUz/Z3S/BxZl1pPwu3s+LXFkYhDSP+qrYulYqfXg4ouHcfVl2Pp4V1fZYJ5gkq1LuRrF6LUhMVDNHhY6/QTx6XTuAaCiab95jaq3PVtWbt9WVj2KA6FhYmBSIAESIAESCDuCITbX4ok4QUiCcywmQSeeOIJuffeeyPCgeFibVq3lk8++kiKvvqq+atQrpz06tlTDhwI7w22V4Rz58yR+vXqyTtvv21sFnv9dalerZqMHjVK0tODD5nwsod9OG/Y0KFS5Ztv5I2iRY1dTFjdqEEDwUTbkSx169aVAgVYzCJhxrAkkIgEPv/8czn77LMjSjq8ctqMXinFW04TTA6NPwzjajd2lezYH3wIVLCIlmzaLz8NWiJFG08yNv9bL0U+7zhL+s/YIBCQolkyMv4wcxB902OevFh/grH7coMJ8l2fBTJp6Y6ITAYTh8444wwpX758RPb2b50uy8aWFnxSfmqH62Rap3/Jwt9fla1LupihYhEZOxkYXy/btqynsTOt0w3GLoSmZWNLyd5Nkb3MsOM/nrZH1s+qL3P7P21sIr2zej0oq6d+K2n719tBQ277iUMDBw407U5qaughfhrJ8fRjMn7RYIF3EISiLzsWlWrd35duE36W1duWaLCI1/sP75FBMztL7b6ljU3YxfxCg1M7C76YFu2ydvty6ZLSWDDhNGx+1ekNaTqkihGbICCFu6xdu9awgqDGhQRIgARIgARIIHEIUByKk2tVqlQpufDCC4N+VSxOkprnyShWrJhcfvnleZ4OJoAESCBnCTRs2NA8ZK5bty5nI0oC6xB/IKR5Dc29/vrrpXDhwkmQy5zNQkZGhlx99dXy6quvZokILzHwUqJDhw5ZjnFHIIHBgwcbVsOHDw88wF8kQAIkQAIkQAJxTYDiUJxcnsmTJ5vOVJkyZaL2zomTrORoMgYMGCB4C/7VV1/laDw0TgIkkPcEIAqdddZZRtjIjjdk3uckZ1OQkpIi55xzjhQvXtwzoho1apj2pUuXLp7HuTPTu7Vq1aqGE8QNr+W2226Tq666SjCXHhdvAtu2bZNbb71Vrr322pAfrfC2wL0kQAIkQAIkQAJ5RYDiUF6R94i3UqVKpmN60003SVEMveJfAAMMvcOb2zvvvFP279/vQZC7SIAEko1AixYtzH2Ph3LWiVnbhUKFCjntxs6d3kOKDh8+LA888IAJh2FT5JiV4y233GL4lCxZ0vcWmjdvnlx00UVy3nnnyUsvvUSOrj5KkSJF5IILLpBzzz1Xxo0b58uRB0iABEiABEiABOKTAMWhOLsu8Ix5+umn5brrruOfi8Hdd98tP/30kxw5ciTOrhqTQwIkkJMEpkyZInjwZL2YtV24/fbbpWbNmnLw4MGgl+Do0aPSpEkTueeee8jR1bagXOHlQ69evUJOXL1hwwaBh+8NN9xAji6O//rXv+Tjjz8WfISCCwmQAAmQAAmQQOIRoDiUeNeMKSYBEiABEiABEiABEiABEiABEiABEiCBmBGgOBQzlDREAiRAAiRAAiQQDgFM/rxv375wgjIMCZAACZAACZAACZBALhCgOJQLkBM1ii1btsjvv/+eqMlnukmABEggpgTS0tJk4cKFgs+aN2rUSD799FPBnD+NGzeOaTz5wVjfvn35YYFsXmh8yALlEZNAnzhxIpvWeDoJkAAJkAAJkEB+J0BxKL+XgCD5r1atmuATyJirggsJkAAJ5FcClStXliuvvNJMWIxJ8e2/Cy+8UPwmgs6vvELlGx2PO+64w0xcjJcQXKIjoB+x0PJ42WWXCSbWLliwoLz22mtmDqXoLPMsEiABEiABEiCB/EiA4lB+vOph5BmTPl966aXmIQiTQHMhARIggfxKYPXq1XL++ecHiEL6QF6vXr38iiXqfA8ZMsRhWbZs2ajt5PcT8RU6fDJey6K9xhfD1q1bl98RMf8kQAIkQAIkQAIREKA4FAGs/BS0bdu2TocTn6aF2zoXEiABEsivBNq1a+fUifoQfvXVVwuGmnGJjMBDDz3ksDzzzDNl7dq1kRlgaIfAsGHDHJZaLrEuWrSoHDp0yAnHDRIgARIgARIgARIIRYDiUChC+fA4CgVc0+2OJj5Py4UESOD/2bsO8CiqLqqCKBawgQ2xAgIiRRAEwUIVqdI7ghSlI72XhN5777333glJIKGG0ENviiJgoXv/71z+N77dbJlNdpPZzZ3vm8zMm9fmvjNv9p7ce59IIClLoFSpUjbz4owZM5KyOOL07Js3b7aRIb4zdevWjVNdUuiRBCpVqhRLppAriLevvvqKgoKCCPGJxEVcECMSEAmIBEQCIgGRgCsJCDnkSjpJ9N66deti/dB8/PHHaf/+/UlUIvLYIgGRQKBKAB/BCxcu0JIlSwguTiDGBw4c6PBxYUGJuC5QvHPmzElYcUs2zyTw9ddfx/q+JEuWjI4ePepZRZLbkMClS5cIsa/UP3TwvVbn+hHEnGwiAZGASEAkIBIQCYgEnElAyCFnkknC6Vh9R/9Bqc4LFSqUhKUijy4SEAkEggQuXrxIy5cvJwTcL168OKVOnTrWfFeiRAmnjwoSCXPipk2bnOaRG44lEBYWFkvW6vtSuXJlx4Uk1ZQERo0axbKtUaMGu+mNGDGCvv32WyNWFgg4xChytmG1szFjxtDOnTvpxo0bzrJJukhAJCASEAmIBEQCASwBIYcCeHDj8mjR0dE2P95feOEFDniJlWVADh04cCAu1UoZkYBIQCSQ6BIoX768zfymiAn9iFXJGjVq5LKv4k7mUjxOby5dupSwwpbag4ODCQG9sWPhg7t37zotKzdcSwBWbEWLFo0VHxCkT0REBM2aNctlBceOHbN5N9KnT0+w8mrYsCENHTqU1q9fz6TT/fv3XdYjN0UCIgGRgEhAJCAS8F8JCDnkv2Pnk57fvHmTzp8/TzjKJhIQCYgErC4BLIWOeCpTpkwhuMS62lq3bm2jAKdIkYI+/fRTatGiBc2ZM4fOnTvnqrjcEwlYWgLxIW4WLlxo827ohKl+Dguk7du3W1oO0jmRgEhAJCASEAmIBOImASGH4ia3JFEKBNH169fp1q1bSeJ55SFFAiIBa0rg9OnTtG3bNpo+fTr16NGDatWqRblz5zZcZpTyWr16dZcPAFewH3/8kbDy2L59++jevXsu88tN30lg5MiR1LVrV5o6darvGpGaTUvgjz/+oA0bNhDc05o3b85WSLCiU++WfsT76GorUKAAlS1blkDGwlVt5cqVdPDgQf494aqc3BMJiAREAiIBkYBIIHElIORQ4srf0q1/9NFH/MMwb968lu6ndE4kIBLwXwnA2sHdKkr60ue6kmp/ni9fPv8VRBLr+VtvvcXfl4IFCyaxJ/evx8U/iHbt2sWEaqdOnQgxjVxZKIFksn8v9euUKVNSxowZ6csvv+TYX/4lDemtSEAkIBIQCYgEAlsCQg4F9vjG6+kUOYSjbCIBkYBIwFMJgPQ5deoUW/3MnDmT+vbtSz/99BOVLl2aLX9ee+01wspKgwYNclk1FFJdwXzmmWcI81KZMmXYOgGWQFBgr1275rIeuWkdCWTKlInHFFYmsgWOBGBVlDVrVnr22Wdt3ln9/VXn06ZNc/ngdevWpZIlS7KlYKtWrXj+gKXZ6tWrefXUK1euEGIqySYSEAmIBEQCIgGRgHckIOSQd+QYkLUIORSQwyoPJRKIlwQQNBhLZ8NN5J9//nFaFz4uyZMnd6sgQlFEzB9X29atW2nSpEns9oK4QL74cLlqX+55XwLq+5InTx7vVy41WkICIG+w+tncuXNp8ODB7K5WoUIFgiUgXNbgKupq++CDD0zNH+7cSc+cOUO7d+8mEFd//vmnqyblnkhAJCASEAmIBJK0BHzxG/uxJC3RAHp49eMdR9lEAiKBpCEBBHgePnw4L/X+ww8/sHUOlDkoas8//7yNsgaFy9UGyyBlJaAfU6VKRZkzZ6YiRYpQ7dq1ORi0q3rkXuBJQL4vgTem3n4izDtp0qRxOIfo80m9evVcNt2lSxebOp566ikmpz7++GOeg6pVq0aNGzembt26uaxHbooERAIiAZGASCDQJSDkUKCPcDyeT368x0N4UlQkkMAS+O233+jw4cO8cteqVasIblwjRoygnj17smUOSBi4c5UoUcJlz/bs2WOjSOlKmP358uXLXdYVFBTE7cMVBMFuo6Oj5T/3LiWWdG5my5aNcSb/fEg6Yx7XJ0Xg+AsXLlB4eDhhbkNg+iFDhlCHDh0IrmezZs1yWXX9+vVNzWkgs11tcF196aWX6N1336VcuXLRV199ReXKlaM6depQ06ZNqWPHjtSvXz8aN24cwWpKNpGASEAkIBIQCfibBIQc8rcRS8D+CjmUgMKWppKsBBShs379elqwYAEvyY6VnKBktGvXjlfXQswdWPO42hAs1p68cXbtauI/efKkTT1Qhj788ENC4GAoQg0bNmSromHDhhHyyiYSiIsEEGsI+BRyKC7SkzKeSACk0tixY6l3797s2gY3tGLFilH27NnpzTffJFgSAYuwZnS1LVu2zGZudDa/Ij0iIsJVVZQ+fXpuG3MrXCsLFy5M5cuXp5o1a1KjRo147ge57s717pdffmHiDIHAZRMJiAREAiIBkUB8JeBKR4hr3eJWFlfJWayckEMWGxDpTrwlgBg5WH1H7TExMaR2WLVERkYau6vGUB7EDfYmTZpQgwYNCK4JFStWZKUDP/Sx1Dr+u7xixQpXVbFy7ErJUPdQt6sNQZ1VXkfHZMmS0SuvvEIZMmRwab2DmEKIJwT3MlerErnqi9wTCbiTgJBD7iQk9xNSApj3bt686bLJHTt2UNmyZXmltZw5c7IF0YsvvkhPPPFErLkXgfhdbWbjscEaydWG7479fP/CCy8YFk7vv/8+f4cqV67sqho6evQof8/gWod/TCBG1Pjx43mVOvzTAjusPzdu3Ojy+4FG8E3F90N9Z9XRZQfkpkhAJCASEAlYQgJCDlliGKzZCfyYgHLr7keFNXsvvQokCeTPn5/wg9fdjhg5rjaslmX/Q9rZtat6EBTZWTn79MmTJ7uqioOz2pdxdI1Ve1xt+/btY1eLKVOm0NKlSwlBnA8cOEDo661bt1wVlXsigQSXwJYtW1jhhMWcbCIBf5fA33//TVevXmVrSvyTAWSTsw0/vEH2Fy9enPBtg4slXNVANKVIkcLm24JvlqvNETnk6PvhzkIPLsKOyjlKO3TokKsuma7H3bNhoQLIxd3uzlXaZWflpkhAJCASEAnYSEDIIRtxxP/il6tXaeumTXTxwgWubOe2bXTowAE+j46K4nu4uHrlCp//du0a/3ceZXAfG/KjHDbUg3s3/viDbt++zecx/3fl2BMeTqEhIZzv3JkzfA8rcWBHGaRhQ559kZF8jrK4h7pQJ87d9RV9RD70GRvO3fUVFgfId/zoUS6D9s30Fc+EHZvZvqINtIU2zfbVkfxd9dWZ/F311ZH83fXVLFb0vprFin1f3WFF76tZrOhyNYsVe1w7wkqWLFlM/eAEkemqr61atjRVD34QO5KrwvXWzZud1oMlnEFipU2blt566y2aP38+Y9pe/uodDOrVi4YMHsyK8pBBg2jq5Mm8TPOmDRto2eLFvDy7O1wD/9h0+au+6lixfwetimtP5kAlV7NzoJVw7e4dNDsHqm+LJ3Og+rbo3yBXWNH7qn+DlPzd9VV9g3T5WwHXrr6XrvrqybddydWquPbk267ma/VMjuZrHSv6d9AsVuy/g1bFtf7byhVW9N9M6l11NV/jebdt2UKLFy4kuIupd9XRfN27Vy+qVbMm/fzzz1S1ShX6pkQJ+u677zi+XK6cOemzfPn4n3yFv/7a+B3oqK9jRo92+k2zJ4jwjwj99509ru3zO7tuUL8+/1519g56Qnw5kqtVce1I/u766um3HTJV76qn87WvcA3M6/OFK1xjrrCfL5zNK66+Le70G0dydaffOJKr/W8rs31VvwPxPpntqzus6HI18zvQUV8dyd9dXwMJ1/bfIFfztcK1I53BEVYSG9dRBw/S4UOHXHoGCDmEUY3nFnPqFE0cO5Z+//13ijp0iNq1bEkb161jpa5L+/Y0btQoPp86cSLfu3btGm3fupXPw0NDeUJAGdzHPeRHOZyjHtzbv28foR2cL5o/n+8NCA6m3t268fmq5cv53pHoaMKOfEhDHcgzfNAgPkdZ3ENdqBPn7vqKPiIf+oz6cO6ur5ickG/2jBlcBu2b6SueCTvaMdtXtIG20KbZvjqSv6u+OpO/q746kr+7vprFit5Xs1ix76s7rOh9NYsVXa5msWKPa0dYqVunDhUvVowyZchABfLn5xW0smbOTDk+/vjRalr58vG9bl27usR1+zZt6NPcualZs2Yc26FQgQLUqGFD6tq1K339xRdUp1YtNqevUa2aw3dQ4XrG1KkcU6Jrx47UrnVr/m/x0kWLGIe6XPV31V7+zt5B9a7q8neHa+Af8tblr/qqY8X+HbQqrj2ZA5Vczc6BulwTG9c6VhzNF2bnQPVt8WQOVN8W/RvkCit6XwMJ13guvD+O5K9jxf4d9OTbruRqVVx78m1X87V6JkfztY4VXa7qXQ0UXOu/rVxhBfhSv5nUu+rJfK3eVU/ma09xvXb1av6mNapfnzq2a0ebNm2iDm3bUuXvvqNFixYRSKgyJUtScFCQ8RtTYcAe118UKMCx6RCfDt/bsmXK8DcX57lz5aJatWrx97xiuXJcl7O+du7cmbJmzUpvv/UWW1h9+umnfJ4zRw4qVKgQvfP22/Rhpkz8LXckV6vi2ixWdLl6+m2HTNW76ul8bVVcO5tXXP1mcqffOJKreld1+bt7B+1/W5ntq7PfgWgbc0R8cW3md6CjvmKu9nS+DiRcu5K/s99MCaGLqd8h8cV157ZtmTy+dfMm/0PdngYRcsheInG43rVjB3Vo3ZpCduxgX+s9u3fTsaNH2Z0jMiKC43fAtQPEUcSePZx+/PhxPj9x4gSdOXOGz3Ef+RDvA+VwjnpQBoFfT58+zeeIjYJ7+KGwb+9ePj9y5AjfU/FTUAZpyIc8B/bv53OUxT3UhTpx7q6v6CPyoc+oD+fu+qqe6XBUFJdB+2b6imfCjnbM9hVtoE9o02xfHcnfVV+dyd9VXx3J311fMfZ4dndY0ftqFiv2fXWHFb2vZrGiy9UsVuxxbRYr/oBr/V21l7+zd1C9q7r83eEa+Ie8dfmbeQetimtP5kAlV7NzoC7XQMO1J3Og+rbo3yB9XnE1XwcSrjEP4v3xdL725Nuu5GpVXHvybVfztXomT+Zr9a6a/bar76BVca1/g/R5xdV8rZ7Jk/lavauezNdWxbWrecXVO+jse+nqN5NVcW0WK/p84em3HeOv3lVP52ur4tqT36zqHXSn3ziSqzv9xpFcrYprM78DHckVc7Wn83Ug4drVvOLsN1NC6GLewDWwumPbNtYZJo4ZQ907dSKQRPom5JAuDQ/PD+zbR8eOHKHz589T9OHDLGh88GUXGQgGBAOCAcGAYEAwIBgQDAgGBAOCAcGAYEAwYDUMbNu6lRYvWBDLxUzIIQ8JIZUdfoQ9OnWivr160dmzZ4UQElJMMCAYEAwIBgQDggHBgGBAMCAYEAwIBgQDggG/wADiIM2ZMYMUKaSOivPwxjHJLGV/OibGcP+yGhso/RGGWjAgGBAMCAYEA4IBwYBgQDAgGBAMCAYEA4IBRxhAvKhObdoQFtXCJuRQHOmwsJAQwx/TkaAlTV5AwYBgQDAgGBAMCAYEA4IBwYBgQDAgGBAMCAasiAHE3jp/7pzBiAg5ZIjC/Mm9e/eo488/0/jRo/3CXMyKQJQ+yQQpGBAMCAYEA4IBwYBgQDAgGBAMCAYEA4KBxMPApg0bKDoqiskQIYfMc0JGzjt37tDQgQN5qXUBcuIBWWQvshcMCAYEA4IBwYBgQDAgGBAMCAYEA4IBwUDcMNCra1caM3y4kEMG2xOHExBEAsC4AVDkJnITDAgGBAOCAcGAYEAwIBgQDAgGBAOCAcFA4mJgd3g4Xfi/a5lYDsWBGIJb2YqlS2nr5s1CEEkkesGAYEAwIBgQDAgGBAOCAcGAYEAwIBgQDAgG/A4DR6Kj6eaNG2I5FAdeiIv8888/1K5lS5o+ZYrfDb4ws4nLzIr8Rf6CAcGAYEAwIBgQDAgGBAOCAcGAYEAwYAUMiFtZXFmh/5d7+PAhXb50iY4dOybkkLDDggHBgGBAMCAYEAwIBgQDggHBgGBAMCAYEAz4HQaWLl5MWIkdm7iVxYEoAjl0+tQpOhwV5XeDbwV2UvogLLlgQDAgGBAMCAYEA4IBwYBgQDAgGBAMCAYSFyfnQIMAACAASURBVAMXLlwwGBEhhwxRmD8Rt7LEBbBMICJ/wYBgQDAgGBAMCAYEA4IBwYBgQDAgGBAMxA8Do4cPpwVz5zIZIuSQeU7IyHn//n0K2b6dwkJDxXJITAcFA4IBwYBgQDDgQwycPXuWzpw5IzL2oYwT6of1oEGDKH369HTgwAGPxnPq1KmUNm1aWr16tUflEuq5pJ34KSYiP5GfYEAwIBhIPAwMHTCAZk2bJuSQwfbE4USWsk88AMvkIbIXDAgGBANJBwOZM2em7NmzCyngBXKoUKFClDJlSsqZM6dLwm3Lli303nvvcd769et7TfalS5emVKlSEQg/T97hRo0a0WOPPUaHDh3yqJwnbUjepDOnyFjLWAsGBAOCgf8wIG5lcSCD9CK3b9+mbh070pwZM+RHihd+rMrL+d/LKbIQWQgGBAOCgf8wcPjwYSYFKlWqJN/beH5vo6KiWJapU6fm46ZNmxzKFFZauXPnppdffpnztWjRwmG+uOD07bffps8//9zj+vLnz09vvfWWx+Xi0kcp89/7J7IQWQgGBAOCgcDHwJqVK2lfZCTTHeJWprM+Js/v3rlD40aNopXLlskPlXj+WJUJJ/AnHBljGWPBgGAgrhiYP38+ExS9e/eW7208v7fz5s1jWdarV4+PQ4cOdSjTAQMG8P0ff/yRj5MnT3aYz9MxVeQU6vWkLKyMYG1UsmRJj8p50obklTlKMCAYEAwIBpIqBmQpe5MkkKts4lYmE0hSnUDkuQX7ggHBQEJhoEuXLkxQLHPxz5jt27dTmTJlKFOmTPTVV19xXJrg4GBq0qSJQSaAGPn222/p5MmT1LNnT8qXLx9bxwwfPtzIo54J1kpwpcqSJQt98sknNGrUKFq4cCGVKFGCTp8+zfl37txJRYsWpQULFtiUR33FihWjU6dOGemwxOnVqxflypWLsmbNSrDEiYiI4Po2bNhgkw99c5cP/YTbV8WKFbmPH330ETVt2pSOHDli1KWeRT927tyZZYm4PU888QTVrVs3Vv79+/cTLItgqYV+wpVrz549Rj4QNVOmTKGvv/6aMmTIwH3t1KkTy1VvC8+sngX9a968OU2bNo3rGzt2rFGfmWeBrNGPDh062JTT25NzmZMEA4IBwYBgQDAQNwwciY6mmzduMPUhlkOuGCAn9+7dvUvz58yhjevXyw+VeP4nU17iuL3EIjeRm2BAMJAUMFC2bFkmMo4fP+7we7t06VJ65pln6I033qAaNWpQ3rx5OU4OXKIqV65slPn+++/pgw8+oAIFCnBA5Nq1a1O6dOmYdAC5pGR58OBBeuedd7iOChUqMKGULFkydmnS3Zr69+/PZZcsWWKURR2I6fPmm28aaSBTYPECcqNw4cJUrVo1toJBXUgLCwvjvGbzoY2RI0dS8uTJmZhp164dE1mo67vvvjPaVc+jH0GgId4QCK6MGTMy8aXfxzlIIVjp7Nu3jwmgNGnSGHWij1WqVOF+wzUMFkA4om2kq7qQ75tvvuF0kEhVq1al559/nutFXpA9Kq+ZZxkzZgzXNXv2bKOcKi9HmQcFA4IBwYBgQDAQPwzs37ePfv3lFyGHnHA/bpNlKfv4AVBeYJGfYEAwIBgQDJjBAIIif/jhhw5JgRMnTjBpgzg2avUrEBM//PADkwm6KxosgB5//HEqWLCgYWEzbNgwzjd+/HijfpBRIF5WrVplpE2aNInzwfJI9blWrVpc37Fjx4w0tP3iiy+yRZDK169fPy4LKxqVBnLkhRdeoJdeeskIzOwqH4gu1I3yiBP05JNPstWQvoIbAnbr5JVqSz9Clnny5OF6ypcvT08//bRhCYV8sIICedO3b1/OA2IIlliqDlg/4X7Xrl2NNPTrs88+Y1lgPJC3T58+nK9Hjx5Gvm3btjE5pAejNvssjRs35vpA3Km+yFHmD8GAYEAwIBgQDHgHA+JW5pb+cZ0B5lZ/XL9uYzYu4PQOOEWOIkfBgGBAMCAYAAbcBaMeMmQIkwawLNExM3jwYE5XrmiwlAERAuIGFjEqryKHlGtYSEgIkxywKlJ5cNy1axfX17FjRyMdq33BrUrPFxoayvlgzYN0kDcgbJBPJ3JwD1ZLX3zxhZEPy7vDLc5Rvi+//NJoB+QVnkWt2oUjSBu4idWsWdPIp/cL59HR0dw3xBvCtXLX27hxI1/D3Q6WVSCZ0Ae4koEIatasmXEf8suRI4dBVKk2GjRowHlBekHWeGZHz4J0WG6pcmafBWXcEV+qTjnK3CEYEAwIBgQDggHPMCABqV1zP27vPnjwgKKjoujA/v3GjxwBoWcgFHmJvAQDggHBgGDAFQbcBaNGbB8QJcpiRdUF1y2QJcoVDQQIiI6GDRvafLNVwGVFtHTv3p3z2buKIY4Qys+ZM4fLx8TE0FNPPRXLjQuxiZBv1qxZnG/t2rV83aZNG5t2FfGCOEHos8rXtm1bl/kQxwhuYXBzgzXRc889x/XDwgd1qedVctCPyioIhBjS586dy2VBpOEahBYsqxCPCNcIQo1nmThxIl/j2XENIkqvF+fK1QxkHsojn/2zREZGcjqsgFDG7LPAMgnWRnBTs29XrmX+EAwIBgQDggHBQPwxIEvZu6V/XGcQt7L4g1BeZJGhYEAwIBgQDLjCgLJuURZA9nlff/11tmTR00HcwF0rc+bMBpmgLInsSR8Vf0iVL1euHBMY9iRL8eLFOV2RSIpsApmkyuKo4uwoFze16tf06dNt8sHFDATKhAkTOF3FL7LPB7csnaBZv349X8OyCcTZ8uXLKTw8PJYlj94ndQ5XMNSllq+Hixau69SpwzGAQHbpFlMqGDXqRx2qz4sXL7Z5FtxD/KJ3333X5llmzpxpkw8ufmhPBaM2+ywqGHX79u1t6lPPJUeZQwQDggHBgGBAMBA/DAwdMIBmTZvGBIgEpHbNAzm8C8uhyD17eBcwxg+MIj+Rn2BAMCAYEAw4wgACKOsWQPZ5EIgaMYT0dEWo6MGoQYDY16MsUvQ4QgiejHg+en0rV67ksnD7UukIogyiQ1kSIV2tAKa7P6nVwXRSCtY1CJ6N8ioYtbN8r732GudTBA1WTEM5xPRRfTF7hAuXCkatyiBwNlZGg9vaK6+8Yriq4T5kocc6AjmDtiEPVR5HPBvSlfsZVi7Dtf7MWEUNckG6CkZt9llAJqGcssbS25ZzmTcEA4IBwYBgQDAQfwyMHj6cFsydK+SQQ+bHZKIsZR9/IMrLLDIUDAgGBAOCAWcYgDWKs2DUKAPCAUSLciuDCxRckEAm6MGoQYDY16MsUvQ4QlipC2WVdQ2OIIXgxqWTSCp4NFyv0A/kQ19gfaO7P6mYSIrMiYqK4jhDKVKksAlGrfIFBQVxfSofAmPrBA3IJPQPpJkKUI324aKFMs7kiPT333/fCEat8hUtWpTrQ51wnVPpOMJVTY91NG7cOM6ru8ihPxgj5FXtDxo0iPMFBwdzfSDDENQaz6wHozb7LMr1T1lj6X2Uc5k7BAOCAcGAYEAwEH8MiFuZSQLIWTZxK4s/COVFFhkKBgQDggHBgDMMqADKsPjBMuj6Pnr0aCYeYK0CYgPEB1YjQ/wh5Q6lXNFUfKCKFSvakB9qeXTd+gfWKagPbmlYoh1kT926dTlNJ5HWrVvHaVhxDJZLyAcSA9cdOnQw2gGhAUIE91EfiB7kz58/vxGMGs+PfIgfBAJF5UOwaqwuphM0yFuqVCluG4RXhQoV+D7asCd3dLkqWapg1Opeq1atuK58+fLZkE32MZGQHwGrEWQa8vn000+5/7DcevXVV2nDhg3GMyPgt3rmQoUK8TPjebHrwajNPgvkgeDdqs9ylDlDMCAYEAwIBgQD3sXA0sWLKSwkhKkPcStzxgC5SL979y5NnzyZ1mpL3QpIvQtSkafIUzAgGBAMJF0MIO4PrFRA9tjvCG4MbGBVLcT9AWHSpEkTXlUMVjwIzqysiUCMIBD10qVLbQgGxM4BoQOXJx1nU6dOJbhgIf4OyqjAzDqJhPzTpk0jWBoh36JFi5g8adSoEW3dutWmPvSnatWqnBfuaOhzt27daPbs2bHyIbAzSCwEtkZ8IxAxKmi16iPILljnIOh2yZIlCYQPrHqwSpjKY3/cv38/YUWxNWvW2ORB39Bn5eqlysGNDflxX6XheOzYMYILXOnSpdl6CS58SNPz4BzxhLByGuQzYsQI7hue2T4OkZlnQXuuiC/7tuU66c4ZMvYy9oIBwYBgIG4YkKXsXRA/Zm+JW1ncwCcvrchNMCAYEAwIBvwFA4hdBEsY+yDVvu7/0KFDmRxSFlC+bk/ql3dSMCAYEAwIBgQDSRMDcE+/c/s20yBiOWSWDdLyieVQ0nxxZMKUcRcMCAYEA4GLAcTGqVGjBlu7wO0MFj+w3tFdxXwx/j///DMVKVKEsGoZVjBr3bo1wWULrmV6bCFftC11Bi6eZWxlbAUDggHBgGDADAZ2h4fThXPnhBzS+B6PTiXmkLxoZl40ySM4EQwIBgQD/oMBrLSFAMtYsQwxgLJnz04DBw70OUEDF7Vs2bLRs88+y3GHEGsIrnT2Lm+CJf/BkoyVjJVgQDAgGBAM+AsGxK3MIyrIcWZxK5MX3l9eeOmnYFUwIBgQDJjHAKx1EstiJ7HaFXyYx4fISmQlGBAMCAYEA4GEgU0bNlB0VBSTHuJW5pj7cZl6//59Ctm+ncJCQ2MFYgwkoMizyMQnGBAMCAYEA4IBwYBgQDAgGBAMCAYEA4KBwMSALGXvkvpxf1PcygLzxZAJT8ZVMCAYEAwIBgQDggHBgGBAMCAYEAwIBpIKBvoHBdHkceOYBBHLIfdcUKwcDx48YNOrA/v3i+XQOZk4ksrEIc8pWBcMCAYEA4IBwYBgQDAgGBAMCAYEA4GDgUnjxtHyJUuEHIrF+niQAOuhY8eOCTkk5JBgQDAgGBAMCAYEA4IBwYBgQDAgGBAMCAYEA36HgYsXLxosiFgOGaLw7KRvr140oE8fvxt8YXkDh+WVsZSxFAwIBgQDggHBgGBAMCAYEAwIBgQDgoG4YODkiRM0fvRoOnTgAJMhQg55xgkZuTeuW0crli4VckjYYcGAYEAwIBgQDAgGBAOCAcGAYEAwIBgQDAgG/AoDe8LDqXO7dhS5Z4+QQwbTE8eT27dv066QkERb8jYu7KCUEVZZMCAYEAwIBgQDggHBgGBAMCAYEAwIBgQDSRcDMTExhJXKbt64Qffu3RNyKI6ckFFsb0QEtWvZkpYtWeJXDKFMAkl3EpCxl7EXDAgGBAOCAcGAYEAwIBgQDAgGBANJFwMnTpygwf360ZwZM0h3JdPPDdIjniePxbO83xS/e/cuLZ4/ny5dukSHo6Jo65YtdPr0aSGKxJxQMCAYEAwIBgQDggHBgGBAMCAYEAwIBgQDggHLYODY0aMUGRFB58+fpzHDhxNC5eibkEO6NOJxvnDuXLYigsB37dxJXdu3p62bN7OpFs6nT57M5xPHjqXeXbvyOe7jHvLHnDrF53NmzuR7o4cNo/5BQXy+ctkyvnfwwAE6euQIny9esIDvDR0wgLDDJAxpqA95Inbv5vP1a9bwPdSFOpEPbSAf2nTVV/QZ+VDGXV/VM6E9lEH7ZvqKZ8KOMnhOtOWur+qZ0CbkiTLu+upI/u766kj+ZvrqSP7O+upK/jpW9L6axYp9X81iRe+rWazofXWHFUdyNYMVXa5msaK/g2axor+DVsU1MI93xlNcO5tX7LGiv4Ou5hUdK/o7aFVcezoHAjNm50B7XJudA/0B1/o3yBVW9PnC/hvkDCv6fBFouPbk267k6um3HXINNFybwYr9d1D/BunfS1ffFqviWv8G2c8rwInCiv4dNPM70JFc3f0OdCRXq+Ja/wbp84o9VvTvoFms6N9BR/I38w46kj/mPFd9dSR/d98WT3Gtf4MgD/TJXV/131Zmf4cEEq5dzSs6Vuy/g/pvK/176eo3k1VxbRYr+nxhFiv6d9DsHGj/DloV14mti2FVssH9+1Pvbt0IRi7379+PxX4IORRLJHFLuHnzJoWFhHDhc2fP0oTRownRv7HhfMvGjXy+dtUqmjZpEp/jPu4h/907d/g8ZPt2vrd8yRI288LF/r17+d7vv/1Gf966xed7wsI436J58wg7NqShPuS5cvkyn0dHRfE9mIyhTmxoA/nQpqu+os/Ih81dX9UzoT2UQftm+opnwo4yeE5s7vqqngltQp7Y3PXVkfzd9RX9wKbL30xfHcnfWV9dyV/Hit5Xs1ix76tZrOh9NYsVva/usOJIrmawosvVLFb0d9AsVvR30Kq4Bi7xzniKa2fzij1W9HfQ1byiY0V/B62Ka0/nQGDG7Bxoj2uzc6A/4NrTORBzlP03yBlW9Pki0HDtybddvYOeftsh10DDtRms2H8H9W+Q/r109W2xKq71b5D9vAKcKKzo30EzvwMdydXd70BHcrUqrvVvkD6v2GNF/w6axYr+HXQkfzPvoCP5Y85z1VdH8nf3bfEU1/o3CPLA5q6v+m8rs79DAgnXruYVHSv230H9t5XZ39dWxbVZrOjzhVms6N9Bs3Og/TtoVVxbQRcLDw3l4NOOiCG8/0IO8TQof5xJICoqiu7cuePstqQnEQn4YqJIIqJL0MeUcbIVt8jDVh5WvJIxsuKoeNYnGUPf/Jj2bBQktzsJOFOE3JWT+wkrARknz+SN+ffBgweeFZLcPpHAlStXfFJvQlfqi296kok5lNCDlRjtlShRgkaNGpUYTUubFpHArVu3qHXr1hbpjXTDlQQwThgv2R5JYNKkSbR7924Rh0UlAJPmpk2bWrR30i2zEhg6dCgdOXLEbPaAzNesWTP5R5qFR3b//v3Up08fC/dQuqYkAJ1jx44d6lKObiSwYsUKmjVrlptcctvXEoA7Zo4cOejhw4e+bsrn9Qs55HMR+28DYWFh9Nhjj9Ebb7xBt2/f9t8HkZ7HSwLBwcGULFkyOnnyZLzqkcK+lQDGB+OE8ZKNeEnOd955h0Bwy2ZNCYwdO5a/MVDcZPNPCfz999+UNm1aqlKlin8+gBd6fejQIcax/CPNC8L0URVlypShF198kRACQjbrSgC6BnSOwoULW7eTFuoZlPicOXNSpkyZAoKUsJBoPe5K48aN+Tswf/58j8tarYCQQ1YbEQv1B0oVyCHs8qPHQgOTgF2BFQp+UAEDtWvXTsCWpSlPJYDxwThhvMR6iGjixInG/BUeHu6pOCW/jyUAq6H06dPzGJUtW9bHrUn1vpLAoEGDeAwff/xxio6O9lUzlq63YsWKLAMoteKGb72h2rdvn/EtCAoKsl4HpUeGBEaOHGmMVcj/47gaN+UklgSWL19uyGvOnDmx7ktCwkgAVkNPPvkkj8VHH33kk5g9CfMkj1oRcighpe1HbSmrIUUOifWQHw2eF7sKKxSFAbEe8qJgvVyVshpSY5XUrYfu3btHsBpS8hDrIS8DzgvVTZgwwRgfjJNYD3lBqAlchbIaUu9ZUrQeOnz4MIEYUzKQf6QlMAhNNAerITU+Yj1kQmCJlEVZDamxKl68eCL1xD+aVVZDSl5Zs2YV66FEGjplNaTGYvHixYnUE+80K+SQd+QYcLVgUlYgV0cw+rIlHQnA/FpZDSkM1KpVK+kIwI+eFOOixgjHpP4D2J54gExAeMtmDQkg4KhO3mF8oMDJ5l8SGDhwoM28A5IEZElS2qpWrWojA/lHmrVGf+/evTbjg7mmd+/e1uqk9IYlMGLEiFhjJVa/zsGxbNmyWPJasGCB8wJyxycSOH/+vGE1hPkF+8cff+zX1kNCDvkEKv5dqb3VkAK7/Ojx73H1tPe61ZDCgFgPeSpF3+e3txpSY5VUrYfsrYaUPMR6yPdYNNvClClTYv2oxTiJ9ZBZCSZ+PnurIfWeJSXroWPHjtlYDSkZiPVQ4uNT9UC3GlLjk9T/eaJkY6WjvdWQGquSJUtaqZuW6Yu91ZCSV7Zs2fyalLCMgD3oiL3VkBoLkHf+ugk55K8j58N+FytWzOEPdwAezL5sgS8BR1ZDasIT6yFrjb+91ZAap6T6A9iR1ZCSiVgPJT52YTX03nvvOfzGiPVQ4o+P2R7YWw2pdywpWQ9Vr17dIY7lH2lmUeTbfI6shhROxXrIt7L3tHZHVkNqrCIiIjytLuDzO7IaUvLyd5cmfxq8c+fOxbIaUuOQK1cuvyXqhBzyJxQmQF8BiMjISN6bNGli/PBZtWoVp504cSIBeiFNJLYEEOQOq0VgVxPdm2++yddwOfzjjz8Su4vSPhGPA8YD4/Tqq6/yWMG6S40dxjGpbfXr1+fnx+odCrt58+bltKRqTWUlDICgU/gEVjFGL7/8MqcVKVKErly5YqXuSl8cSAC/E6pVq8Zj9v777xvvWYECBTht2LBhDkoFVhK+gWruBX6BY33u3bRpU2A9sB8+DVZDRLDwokWLGhjFyk5Ia9Cggd8qbn44FG673Lx5cx4XBPNV322MG8YK4yibrQRAbkI2n376qSEvzL9IE+LTVla+vMJKlePHj+dd4TZPnjxG2o0bN3zZvM/qFnLIZ6L1/4r79u1rTDpgR2VLmhJQEx5MJ2WzrgSgrGGsUqVKZd1OJmDPxowZY8xf+IDLZj0JAKvArLgOWG9szPZIficQ41fmXrOISfh8mP/V7xh8F2SzrgT0+US+2+7Hafbs2Qa28U982RJPAmqOwW9xf9+EHPL3EfRh//VJWsghHwra4lWrCU/IIWsPlJBDtuMj5JCtPKx4JeSQFUfFsz7J7wQhhzxDTMLnFnIo4WUe1xb1+UTIIfdSFHLIvYwSKofSlYQccizxxxwnS6q/SUCfpIUc8rfR815/1YQn5JD3ZOqLmoQcspWqkEO28rDilZBDVhwVz/okvxOEHPIMMQmfW8ihhJd5XFvU5xMhh9xLUcgh9zJKqBxKVxJyyLHEhRxyLBe/S9UnaSGH/G74vNZhNeEJOeQ1kfqkIiGHbMUq5JCtPKx4JeSQFUfFsz7J7wQhhzxDTMLnFnIo4WUe1xb1+UTIIfdSFHLIvYwSKofSlYQccixxIYccy8XvUvVJWsghvxs+r3VYTXhCDnlNpD6pSMghW7EKOWQrDyteCTlkxVHxrE/yO0HIIc8Qk/C5hRxKeJnHtUV9PhFyyL0UhRxyL6OEyqF0JSGHHEtcyCHHcvG7VH2SFnLI74bPax1WE56QQ14TqU8qEnLIVqxCDtnKw4pXQg5ZcVQ865P8ThByyDPEJHxuIYcSXuZxbVGfT4Qcci9FIYfcyyihcihdScghxxIXcsixXPwuVZ+khRzyu+HzWofVhCfkkNdE6pOKhByyFauQQ7bysOKVkENWHBXP+iS/E4Qc8gwxCZ9byKGEl3lcW9TnEyGH3EtRyCH3MkqoHEpXEnLIscSFHHIsF79L1SdpIYf8bvi81mE14Qk55DWR+qQiIYdsxSrkkK08rHgl5JAVR8WzPsnvBCGHPENMwucWcijhZR7XFvX5RMgh91IUcsi9jBIqh9KVhBxyLHEhhxzLxe9S9UlayCG/Gz6vdVhNeEIOeU2kPqlIyCFbsQo5ZCsPK14JOWTFUfGsT/I7QcghzxCT8LmFHEp4mce1RX0+EXLIvRSFHHIvo4TKoXQlIYccS1zIIcdy8bvU27dv0/Xr13l/+PCh3/VfOuwdCTRo0ICw4yMkm3UlMGnSJB6n5s2bW7eTCdizbdu2sTyA3YsXLyZgy9KUWQkAqxifkSNHmi0i+SwmgbVr1xrv2e+//26x3iVMd4Bf4Fjm3oSRt6etXLlyhdq1a8d7WFiYp8UlfwJKYOvWrcZYYdxkcy2B/fv3G/I6evSo68xy16cS2LhxI2GPioryaTsJUfm///7r9WaEHPK6SKVCkYBIQCQgEhAJiAREAiIBkYBIQCQgEhAJiAREAr6RgJBDvpGr1CoSEAmIBEQCIgGRgEhAJCASEAmIBEQCIgGRgEjALyQg5JCXhikmJoZN4xGXBebFsieuDIKDgyk0NJR8AXB3kLn19326/Ntt2RNZBtdv3XU3VHJfJODXEnh47w7d/uWM7Iksgzu/Jb7b4r1bvwsOEhkHPn8Xr52nfx8+SPQ566/bf9Kf/9yUPRFlgDFIzO3hvw9l/BNx/BPq/Xvgo/nmwoULtGjRIho/frzsiSCDWbNm0ZEjR5xOIb7QnZOUW9kvv/xClSpVIhWISo6PWUoW2bNnp927dzt9Abx14587D2jOxgtUt08kFWkVIrtFZFCl+x4avTSGfrspRJG3sC71JK4E8NH+NWQhHer5De2q+Qrtqv6i7BaQQXj99HRi7I/094WEi/tw/68/6Oz83hTZ/GPBgAUwkBDvYljdN+jo4Bp040hIgk5EMZeP0rAlXane4GJUoVce2S0gg+8HFaURS7vTqcvOlTxvgyTi+A7qM7cl1ehXSDBgAQz4+l2s3rcg9ZrVlEIOb/DKP9sRI6lw4cL0+OOPW0pXTKq6e5YsWWj58uWxpgkhh2KJxHwCVvBKly4dAzxDhgxUuXJlatasGXXs2FH2RJRBq1atqE6dOpQnTx5Knjw5JUuWjJYtW2Z+YD3MefLin1SjdwQTQpW67abuk4/QyEWnaNyy07InkgxGLY6hXtOOUq2gR2RdmY5hFHbYt8FSMZkeOHWDBs49QfX776UKXcOpXKcw2QNUBrWDIqnThGhauuMS/X07Yf6b/+D2n3S4T3kmAsLqvkZH+xWms1Oq08W5P8ieSDK4MLs+xYytSAc7fcLjElorDV1cNcrDr4jn2W8eDaU9jTNwm5HNMtDJEaXp/My6goNEwkFCvIOnx1eiwz0K0K4aL/G4x0xrR//6eLEQWIjM2jyaKvb6lMmAZmMrUK+5P9HgZe1kT0QZYAwwFiAHMDZT1w8hjJWvtn/u/k1957Xm9ioHfUZtJtWgPguaCwYSEQO+fgf7LmxBbSfXpCrB+Xnce8z4iW79orTmUwAAIABJREFUcyPOEFuwYAE9+eSTTAxlzpyZSpcuTbVq1aK6devKnoAyqF27NpUrV44++eQTeuqpp5jDaNOmjc24CjlkIw7zFw8ePGDBgv0EwIUQsiYh1qhRI3r++ecpRYoU5ItI/nAfq9AlnEq23UXT156jM5f+onNX/pbdQjJYsfMyj1GJNrvoUEzcP2yuZocbf96j9uMOGxZjsFj6afB+ajbsoOwBKgOQQ8AULAUxB0Qcve4KIvG+9++D+xQVVIaVQhAB987MIPp1sewWksGfe4fQgfY5eYwur58Q7zF3VgGsk2CpFF7/Tbq2rj39+8siwYGFcODr9/L2sfF0uGcBxtmZWV2cwcQr6bM2j2LFsMW4SrQpeiEduLRDdgvJYPORxdR6YjUeo0lrB3plzO0rgWtRt+mNuI2ec36k0Jg1ggELYcDX7+TuMxuo/+JHxGCrcdXo9t1/7CHi9jo8PJz/WZ8qVSomgkRntobODIOWt99+mwmiUaP++6eWkENuIe04w5gxY1iYBQsWFGIoEa2EzEwwYKVB4pUtW9bxYMYjtcvEaFYOl++8LISQhQghe4JuT/TvVLZjGNXsHUG373rXygMxphoM2Mc46DopmiKPXhcsWBgL9tiIz/WJ83/S7A3nGVvFWodQaJTvrNMurxv3SBmcUEWIAAsTAffPzaS9LTNTWN3XOQZQPD4vDoviR9vBzl9TaO20dCtioGDBwljwJUn08Mp8iu71Oc8JvnIxO3r+ABMCIB/2nt8ihIBFCYHI81vo5/8TRAdjvB9GYWXYbMZB8ILmggGLYsDXBBHqH7W6G+Ng5qaRDr9NzhLxzcqWLRtbDTVs2FB0ZovpzLAaSpMmDT377LN07do1HkYhh5yh2U06XJZgjgWhmiEoJE/isqQffPABu5f9/rv3lLezV/5mQgAEUXwUTCmbMJZWk1ae4fHasOcXN2+3Z7eDph/jeieuOCM4SCKkkP07u/fYHwSX0tIdQn0S3wpBaCOafUSRTTPQw0vzhBCwOCFwc3f/R0Te7K6eTSYmct+I3ikkocXH35ekkF73neMTKLTmK3RkQBUTyPE8S5+5rahi709py9ElQgpYnBTYeWIlVQn+jHrNaub5QLsoAauhH4Z8Q/WGFCeQUAlBQkgb1rTO239xOzUZXY7jTXliPQSrIcT0yZ07t+jLFiOGFDdRoUIFHqMBAwbwbCDkkItJ0dmte/fuUcqUKQmEgxKsHBOX/HEn/xIlSjDwN27c6GxYPU5fuPUikwJrw68KKeAHpMDRs7eoaOsQApnjre3c1UcEYauRhwQDfoABe1LHm9erQ6/wfDB++Wlvwcuo569z0UwIIL6QrhzKuXXd6mA9tK9NXmMMvXVydm4PxsLfB0cIFoQkoiPBX1BYndcIKxd6c7t3/y5V6/M5x5YRZd2ayrr9uHSeXo/jw2DsvLUhEDniGg1f2UmIIYsThPZ48MX15E39GA+RJ3aahhgIB5BDNWvWFJ3ZouRQ+/bt2bKrVKlSPK5CDpmG938Zb9y4wUDPmTOnAN2iQLcni8qUKcNjtmrVqv8GMp5nIxadYmXwcMwNIQb8hBio3G03gcjx1jZv8wXGwPrdQhB6k2jx17rqBEdSjV4R3oKXUc/1feuZEPhl1c9CCPgJIRDduyCvJmcMopdOjo+sz1iQOEPWJQYTkrQ9M6EK4+Hu9cteQtijaq7duMpK4IAlPwsp4CekwIhVXXjMLl474zUs7Ixax3XODRklOPATHPiCFFJ1Lt87lfGwLmKRaYy1bNmS9a+mTZuKzmxhnTl16tRUoEABHlchh0zD+7+MQg5Z20rInhjCtS/IoWELH5FDsEjxV2U2qfW7cvfd1GLEwf9e5nieDZhzgskhxJ5JarKU543tDtljyhHGw9173l01BkvXY5ns61u7CznkL+RQUCEes3hOMbGKRw+oTOH13hAc+AkOfE0UnZ1cnXF259qFWFiJT8LZX06yEjh6TXchBfyEFMBYwcoHY+etDSQA6lwYNk5w4Cc4UESOL44r9k7zmBxq3Lgxk0NYSdqRfiZp1tCphRyK56wp5JA1gOzJhCLkUGxFNikq994mhzpPjKZS7UOFGPITyzFfY17Fn/rrn/vx/MrYFk8scqhtk7K0Z31/mjC4MY0d0JDGDWxE6+Z3TVRiYtGUNlTi65yJ2gczCn+0kEOWHyMz42j1PEIO+YfLly8Udfs6hRwSLNhjwtvXQg75n/5rVlcWcsj2d7fHV0IO+d/LIeSQkEMgBrxNDnWaEM1BiH1NOkj9/oHfQCKHbpyaQW1+KssK/tQRTfk/f5OG/pTgCv8/5+bQr0emGO0e2jaEhgfXM66tqrwLOSRuXwmBTSGHhBBQBICQQ4IFhQVfHYUc8j/9V8ghj2meuBUQcsj/Xg4hh/xDufY1CSLkkODAlxgLJHJo+qhmFLIqmEmY7ct7Mzm0e12/BCdlRvb9gcLW9E3wduOr2As5JORQfDFkpryQQ0IIKCJAyCHBgsKCr45CDvmf/ivkUNy4Ho9LCTnkfy+HkENCCoAUEHJIcCDkkDmlvWHtovTw6kImZXauDGJyKGJDf7ckzeEdQ2nN3M508eCEWHlvxsykrUt7UuTGAaQHVMY50lbP6URn944zym1a1J1SpEhOy2d0oCuHJ3H6/csLyJ6kenBlAe1aFUwbFnSjW6dnGeWhXF87OpWOh40klNuypCedCB9pc9+MAh6XPEIOmcNZXGQrZf6TrZBDQggoIkDIIcGCwoKvjkIO+Z/+K+SQxzRP3AoIOeR/L4eQQ0IKCDkkGPAlMYS6A8Vy6Pfj0wjxhpQSboYcunNhHlWvUJDggoa4RJk+eJMG9ahj1AHip0m9EkwOfZE/K1UolY8JIhA7Rb74mCYO+ZG2LetFr7yciskg1DdmQEMmpeDeNm9Ca4JLWb7cGSnj+/8FZAaZVKZEHlo7rwtNGd6E0r3xMm1e3IPbnT22JaVMmYKa/VCSalYqRN8UzkXJkyejfZsHGv1Sz+jto5BD/xEY3pat1PefbIUcEkJAEQFCDgkWFBZ8dRRyyP/0XyGH4sb1eFxKyCH/ezmEHBJiQMghwYCQQ/8pla4UbMQW0l25zJBDQR2rEayNVL0gaB577DG2CELMoHffTkt/n53D90EevfHaS4R4QhcOTKAnn0xu3ANp9GPd4pwP1j6oQ+/LsKDvbcihwoWy0dzxrYx2u7SuSK+lfYH+OjOb03LneJ8qlv6MLYfQtxwfvUtdf65k5Ff99fZRyCFzWPO23JNafUIOCSGgiAAhhwQLCgu+OgY6OdS9e3fq2bOnsapa165djXOzJIu/5pOA1B7TQbYF/JEc6tWrF/Xp04c6depkAL1Hjx7GeVzBHBwcTHiZVPlu3boZ5yrNCkchh4QYEHLIcwysWhdCW0MOOF2NbeW6nbQ99JBxf93mcNq0Y69x7W0y5sylP2nuojU0cuw0OhB93mftxLXfgWI59EPNIjZuX2bIoQ/efd0mUDRcxdK8koraNytP8ye2ZosfZ4r7n2dmcdDpEX3qU85s71K96l87JYewcpqyHILrGsijg1sHG2TPkZDhnKZWVSuYLzP17lDNuF+qWG5q3uBb49pZn+KbLuSQZ+TQ1cOT2aosvnJPyPLAHfAWlzbh/rhqdqc4ldXbE3JICAFFBAg5FDcsLNg4lZZsm0FKjt46jps3hLYdXun1er3Vv7jU4+/kUGhoKP3222+0d+9emjJliqGvjho1is6dO0f79u2j8PBwOnbsGK1evZp27NjBeQYMGEArV67ksiiP/fDhwxQdHU2nT5820idPnsz5cTxw4ICRfvbsWcJ+/vx5rn/48OFG27NmzaIjR45w3lWrVhnpCa07Czlky/V4fGUVcmjw4MF0/fp1unbtGi1dupTJHx1MIIN27txJf/31F/3+++8M4hMnTtD+/ftp4cKFFBERQSCIFi9eTJcuXeK6UB9AOm/ePBsiSa8X5/Pnz6crV65QWFgYv2RHjx6lFStW0Jo1axjYgwYN4nPUh71z586JBnj0N1DIoS0791PT5m2pVZvOtGf/qVjKccSBGOrYJYgaNG5Bo8fPICjTcVV0vVkOinz/wWOoZ9AgCtlzhPs1a94KKvFNGe6vN9tyVZe/xBw6dPQiDRo2nl57/Q3KkDEz1ahVn0qXrUj5P/+SxkyY6fMxPXv5L+rWsz8r2cNGTorVHu537t6H74OoUTL/tvR3VLlqLeNapXvjGHPhJpUtX5nmLV5LVarXoRdfepkOHrngk7bi2t9AIIdg5QNCR1dAXZFDcAsDEfTsM0/bkDAoD6udBrWKMGmkCB29Xpyj7IDutahFw2/p+onpVLvyly7JIbifqboQpwjkEPqn6oV1EtLmjGvJaYU+y2LTL7igCTm0mBA/qlalLyhtmtRUqUx+dgVUMkyMI1wIYV2WGG3HtU3I7ftqj4hMT+qI2j6UPs2VwcCxJ2Xt8yY1cmjP6U00auYAGj9/KO09v9VG8d5/cTutCZ/vcN8ds9Emb1wUY0dlFm6aSjUaVKIylb+hkTP6+6QNR+06SgtEcmjg+F70Xoa36aVXXqRaDavQloPLDRlvP7yKKtcpT2lefZm6DmhrpDuSjau0oqW+orJVSsa5vKO6gcUXX36BgoZ39mq9jtpKyDR/J4eioqJY5580aZKhk/bv35/u3LnDZJDSdWH0AF0YhJFKw/HixYsGZ6BbFY0cOZL++OMPmjFjhpF//PjxRt7169ezTr1lyxZOe/DggQ05BR0eG+7r7SXkuZBDxnDF7cQq5NCwYcP4AezBCzCNGzeOSaF///2Xli9fbkP0jB49mm7evEnHjx83QLhr1y5DGFOnTjXSHQETLCc2vAzqfr9+/Zik2r59u5GGe7du3eK8Qg55brVhr6DOWbCKPsz8EYXvPUGbtkfS+x9kpG27DhrK8eYd++ill16hXJ98SunSpWcF6cuvitLpi7eMPPZ1+voaJEKP3gPp07wFCFYoqr3DJ67QpGmPXEZatO5opKv7vjr6Czmknj9zlo+oVJkKhnxA/EHxHTdptpGm8vri+MorackROaTaSpUqNVvxqOtT52/4DG8goQoX/YafG+30HzSaQBiptq1wDARyaOyAhkwc6ErojhWPVitzFJB6xqjmTPCACCpdPLeNcp/1w7cILmorZ3Vk3O7fMsi4j8DVR3cN51hBiBMEkghtghxSCrdyKwtd3ccop5NDf5ycQcmSPUFDetU17v92bBq3dXL3KE4Tcsi5Bc/Ghd1ZVhhffbwT4hzxo/TYTxj/2+fnJng/4vOs9y7NJ5Cjqo67F+cZpKRKc3a0d490ls9delIih9buWUhZc3xI/cZ0p24D21Huz3JQyLG1hvI9ZclIxjO+kfb78p2zjXzeUqYnLRpBxUp/ReGnNlLjn7/nNictHO71dsz2NxDJITx78IguLFsQgvaymDB/KJNz9umeXEec3RKLaPSkvLO8viIknbWXEOmBQg5BR1b6K4gbbDCUUGk4wnhC15ORBusftSlyCJ45uDdnzhwbcgjWSGpDG8iDMtDLsV24cMFoD21jE3KIxeCff6xGDsGkDaBTO1jQf/75h4ULyyGVrh/HjBljA3qQOmqbOHGiwzKq/MmTJznrkCFDbPKBdAoJCbFJAwmFTcih+JFDR2N+pTRpX6XhoyYbyvCPTVtT7k8/IxAwUIyr1qhLsCzCOQih2nUfBXN1pdz7UqFGv+rUa0wZM2WhI6d+Mfqtt/n886lIyCHn2MiRM7cNOXTo2CX+kVT2uyoO5anL1hvnb7yZziU59PLLaWzIIW+06awOWMPBMsnZfSukBwI5BJcuRdQoxRTBnqFsIai0SkMepCsro8VT2zJRE71zGOdBoGhY+MCSB0oz3M7eSZ+WFk5uw7tqB+QRgkZjFTGQTx9neZtJJsQZQhsIII1A04hhhOvR/RtwPaofTet/w3WrGEMIQl21/OdGP2Gh0a3NfzGG4FamYhqpOnxx9Ae3MlcWYb6QiaoTpAqCkuuxpNQ9fz52almB+napYWDP1bPAUkpZwLnK5+5eUiGH9l3YRpmzZaSWnRsbBEH5at9SqYrFba6btvuBhk/rS6NnDeQd+TNmed/I400FOluuLNS5789cN/rXa2hH2hG92idtmel3oJJDIG9gHVRaG2slj4q1yhBIQ3Utx7i51pmVWyCSQ3Adwwa9efr06TY67Ny5c22uHZFDymMGZJLuLuaIHIIeDSslbPCqUXq1kEMsEv/+Y3VyCH6Oahs4cKABPgVCdVy7dq1xb9u2baoITZgwwUhXefUj2E5sv/zyi82LgDz2LxJkhU3IIecEgBmldsCQsaycRR46bSjHM+eu4DTEfYH7GK71ukAoPf7449TwxxY26XoeX573HTCSnnrqKZcxaFK/8KKQQ1ecY8OeHNqwdQ+PedMW7WzGNDTiGLXp0J0qVq7BLmhw4ztx9jqNGDOVKlWpSTvCoqhYiVJU8IuvOWYPxn3Jyi1MIAb1G8Z1rd0UTj80bEadugYbdb/55lvs3vZzu66UK3deatK8DdercAPLIuVWBou25q06UPtOvYzyJ8/9we5pcIOEBRTaVGXtj3CJxHP91OxnAvkFXKs8bdp3o6wffczWco2btKJFyzYa91QeKxz9nRyCS5lOpEAxBWEDMgUWOFhVDMQL9pJFcnGaruCD6Cnw6YeE1cXgunVu33/L0p+OGEMlvs5Jr6Z5gSqXzc8xhlA/Yq+AsMmW5W0aN7ARIabQJ9nfN+IIQdnO9fF7tH5BV0IdcFMDsbB0WjtWwrGqWesfS3PfOjQvT51bVTAsUEAooc9wn4IrD1ZDQx/gDqTHKXKngMflfiCRQwj4jUDfsOoK7lSdyT4lExB/Q3t/Tz3aVuFxVVZeIPJAgCBQef0ahfn+w6sLSa1qB7IR9Q0PrkeIOYWxx4pyql7kg7shxhN4w2p1uId6ty/vzWnAJvCR95MMnFeVdXREeeQF9qaNbGq0c2rPaMYrngu4UNZMx8NGMq4QFwhWPp/lyUStGpfmIOqoH4HUEdhckUGwXgORCWyCJAJZCfwBk+2almNrOFi1qb7BQk/IIfOKLAgfYEa3ABoy6ZEl7eqweRR5bgshxou9klvnx2rUtH2DWOn2+Ty9Bhn0xBNPUO9hnbxet6d9UfkDlRzC84H0S/5kctp8YJkh751H11CJsoX5Gm5cGItGrepSoSL5afDE3pwOvMAdDZZmQycHU668H1OZSiVIWfWsj1hEDVvWoeYdGxn1RpzZTG17NGNrMFiGTV8xxrgHIgp9QR0gppzFFJq7bhKBvARJif4DLz93b8L11v2pOrXo9F97avz84RiI5BC8ZfQNBhdwCdP1XnVuTw4heHVMTIzDvI7IIcQuUhtCu6h6hRxSUvHjo5XJIZi3wZcRG1y6FPDcHT0hh/S8MI8DGYUYQ47aEHLIueLviTILxfrJJ580rIRQdlfEUf6xBFcjZ3WlSv0CBfcfzvdnzFlO1WvW4x1xW0A0wWoHaSCQ4KqGeqbPWcZpQ0ZM5DZACEDp373vJFWoVJ0+zp6LevUZwnmnzV5K+Qt8wW5ji5dvMvoBCxcQP4gNgzqPn/7Npu+qvy+8+JKQQybIoeNnfqclKzYT3Mzy5vucIF8lQ8QnKlmqPMHVCiTh54W+5h2xnRCrCNY9DRo1p7ETZ1G+zwoyYRcWeZzLV6lWm0qULGvUhbFG/apukENffFmEho6cSN17DaCnnn6aCSV1XyeHEIwabo/AE+7DcqxIsZLcb1yD4EmZ8hnGgiqvjnAzhIUZMIa0KTMWcVsgw1QeWMLpLnYq3UpHfyeHlOIqR+euWGZlEyjk0Mi+P1CzH0oyqQHCBiSJInFA1MCVcNeqYL6PwN/PPPMUEyjLZ3Rgiy7kAQGIFengxgb5KXdBRSyC9Ktb9SuDLEGZ777NR0umPiIAQcSkev4ZmjzsJyb+YKUGoqBOlS85iDWsxXANQsfR+AzuWYf6dH5k0aOspVScKqxeh/IoByInf55MTEChr4ijBRIU1mogwPAMTeqV4LwgF0Fo6iv0oawii0C0Iv+lQxM5f77cGZk0Uv0Tcsg8MQSl+bsapfmfXVCylRK9IuRRfLFOfVsbaeoejiAM3kz/ug2hpN93dj5/wxSOFQMCoWOfVlS/eS2avWaC0cactRPZSgiYq1y7HLu5rdw117jvrF5fpwcyObTl0Ap6MsWT9GObeoacMTaIPwW5NuvQkMbOGcTn05aN5vkAx1mrx1Oa116h3PlzUt/R3fj6+VTPGTGKEIw6Q+b3qELNMlwWmPmiaAGatvwRIdSk3Q/0dMqn2XUQVmFFS31JsGQCDvMVzM27/biiDrjAJUuWjLGB+/3H9uA+4hyEEvBsX84frgORHILuivi59hviEymXMaXf6uQQPG5+/fVXunz5skP9VyeHELoFcY4QkBobCCW9biGH7KXvh9dWJofGjh1rSBRBphWg3R11wsed5RACdSmAq8YePnxIW7dujWUhJOSQd8ghWJCkSZPWUJShECsXo5q1f7BJV8ryzvDDBHJIX9UJZA1IJhAJyAeSIHny5BzgWpWDxUnOXHkIhMTg4RNYoQdhABJq6aqtTPjgRxGIJaQhFhKsSuCCpFzcBg4dxx9nWK2ALEBQ5dffeJOmzlpi01chh1zjA+Oe6cOsVL9BU5YnLHCUjNV4dejcm0kYBJDGXrT4t5QiRQqKPnmVSR3gRsWdijh4mskhWBmhPAgXnRwCgWNPDoEYUm217dCD8aNi/ejkEPKAvFHkEMisDzJ8aJTdd/gsxwmy7z/Kde4WTAUKfmXkRR6QkLobmZBDL9L1rY+Ua6VgyjH+JI6vZBgI5BDIoBdSP0sh/yd/ICu4FmL+h/sgSKHMGdMZhAwIEcSEArmD++MHNeZ7v0RPoZdefI5mjWnB1/bkEOrVyRJYBKVIkZxJJDU+sEZD8GzUrcqrWElIQ37EtlL51RGWTXBbRN+QhhhB6KOy4oF1Ela9g1UTrObef+c1ow4EyAYxpOpC0HS0o+IMwQrJGTkEd8qOLb7j/v5zbg4V/SI7W1CpuvTnVWlxOSYVt7IcebLRCy+mtlGooWQDi1W//84mXSnZsN7IlDWDw3sqj36EUg83saeeTsFKP6xG8hXKQ8+nfo4V/bFzB3NdS7fPZNc1tA0rEFgsbYhcbLodvU1vngcyOQQ5Ieg3AlMjKDnG6stiBZikQWDy1C+kojbdm7JlDqx+QOhgbFAue+6P6Ke29Y3xwZjCmkjJHuOsyCGQQgiAre6BlILVEdqDtQ+II9SPHe2DsNp1fJ2RX5XDEX1FfCyco2/vvJ+eFm+ZztcgpfS8/nIeqOQQdGQsxKR0VqXbYuGlLl26GLq0Tg7Bumj37t2myKFTp07RunXrePEoPV6v0s2FHFIS9+OjlckhLJ+ntqtXrxqAVgB0dvSEHEIdeFk2bdpEd+/eVc3xUTeTQz71oolbmWsSQCnfzo4IPv3BB5kM5Rn5EMcHP07gSuSoHOL9KKshdR/WQSijkzRfFylB2XN8YtQxYco8mzgzWbJmo2++LWfch/sP6oAliap3+OgpnAbyAWmwMEIetQw6yAm0AzeznbujjXJCDrnGhe5W9v0PPzHZp6x+lOy/q1jNxhVMpeOIeFOw/tHTMNawGEKaGXJIj1kFtzCMK1zIUN6eHMJqYooc6t13KKH/etvOzkFoYdfvV6v5Pb373gdGmpBDQg7FRXlOrDKBQA4hgDjedz2Q+OWoSZyG1eBAnCCmkzMZgyBCTCq4Cr6W9gWaObo551XkjrIcQnnkUW5WsNKBpZBeL9pDX9A+yCCcK+sf5EN+5Wqol0MfkNdZsGv0Bc8BYqhlo1L03tuvGu3ifOqI/1zQ1sztzHXBkgltVPvuc6fkEO6DgOrZrgq7vBX/KoexCh/uCTnkmeXQux+8TenfTWejUIedXM/j4SgWDZTt75tUt3EXMquAgzx47Y20pKyBVoXOY8Logw/fM9oPPbGO20awZLP1+jpfoJNDsOjCu4wVwEDiKNcsuBU+/fRTTOA4kjFcyWABpO6B1Klev6Jx/U25IgY5BGukj3JmNu6pMjgivlXLLj86vKfnU+eIk6TIIaysBpIK/S9e5muCO5vK50/HQCSH9PArCBiNJexV3F4otlidW+nOOjmEvJ06daKDBw8a91U+HHXLIRWQWr+vnws5ZEMl+OeFlckh3Z8R4NbB5+rcDDmEulGH/iIFBwdTaGgowXJIbSof8go55Fr515VhV+d58uant9K/YyjKyAtLDHxo4DJkXxYWPiCNHFlpwCpIuefAOijbxzm5HsScQT0gG+AGpuoEmQCyR13jHtrFalEqbfL0hZwGVyakIbYNlhpX93FEnBiU02PaCDnkGh86OQSLLhB1WPlNWQJBrghEXvyb0jayBjaQH8QOLLr0cYDbGYI7I80ROYT6VX4QSzo5BFwhzgLiWSFPLHLouyoGOTRo2HhCwHEdS4hBpFzHVBs4IsYQnk1Pa/RTS155T6UJOSTkkK70W/3c38khrCaHIOGYs5dNb28QJrCCQRpiQIE4ASmDNDUesNSBJQ7cshA7CvGEcC99uldckkP6KnQ4Rxs3Ts0w6gUxg7lHBR7HfTPk0JnIR/H6VCwk1U+kw1qocKFsNH1UM24Hz2NPDiEYuioDSym0Czc5pFWvUNApOQR3MgRhPxY6gvMivhKCsKu6hBzyjBzCKmX25BDcfDAe1epViKVow9LjrXfeNAgeTxTwzwvno8++yGNTJyxL0JZaHU3IIc/GzxP5u8r7Sb7s9OFHGahc1W8JVj3Iu2HvEh4be2scRcCgjEtyqPx/5BCCij/3/LPsRqb6gRhEsAz7rnop+qpEQRtcoA+wZFJ59SPc2RQ5hDxwReszsisH134j3WtG3CO9jNXPA5EcwkJK8IjRdWSswI2l6bHpK4jZk0MoA4sjVRYrlgX06KOmAAAgAElEQVQFBfG1kEOKFXh0fMz2MvCurEwOAaAqYDQkb7+imAKw/dEdOdS7d29SAaztrYNQFyyWVKyjKVOmGC+KkEOulX+l+Lo7lqtQlRVtPd+mHXv5g9hnwAgbpRrKNyw4dKVcL4dA0XA7glsaCB64hYFAgPINyx9YqOj5QVDYkENnfud2dXIIMWL4h9P/ySGQFfZucCArkAdBj1X9Qg65xgeIO91qa/OOffR0ypQcuFnJEG5fkOuocdNZriCOmrVsz8QgiB3EHFJ5cQ9jvWDpek5DrCnEjFL3EaMILoLq2p4c6tqzn01/UDeCXqv8wB0sfnANqzEEREccI1yDqIQbIuILqfzqiKDWeAYEzlZpiKPUo/dA4xruk7osVD79CNIKMZj0NOAOZJmeBjkoKzc9Pb7nSSnmkHIfUsquN4+/H59GcOFRxIIndcNaY2D32kYcHE/KejOvP5BDCNCN9y58bV+DtIAMYE3Tq31Vdp/6MMObRowh3IMlDoKKw+UMMX7wjsN9Cvdg0dO/Wy26GTOTrWpAiKj6YDmEQNCoG25Z/L6v6M3EEsrBcijDe69zfqx0h+DOiDGE8thh3VOu5Kd8riyHlFsZ7j//XEojRpEqgyPaAjH1ZYGshvUQiKutS3sa5BeIItXG22+l4TIgjkAUIai2qg8B11GPuoblEAKkq2sEY4fcUHZ0vwbcLvqK+xVLf8YxkvD8uEa96nlV+bgck4pb2dffFKIXX7J1K4NFD3CkLEh0xXre+km8upmeZvbcETnUIeiR5ZoKiC3kUOKQQyoIub5KHYjAdG+/wZY5sNDBOM/fMJkGjOvB57Ac0t3K4BqmE4qwHFIxgDC+mNPqN6vJZVE3VrwDKQiLJeAN8YPQBtzZGrSo7dRiCZZDiHOEvLBICju1gc9BNIHoBn4dYXLjvqVMJOEe2tddFkEyKVLMUVlfpwUiOQTXMKXf6rqxWuLeleWQnr9bt2507tw5Q//VyaENGzYY6XoZdS6WQwHAFVmdHMJS9MqSB0G2FPj0I5hNfWUxd0vZgzldtGgR14UAXIhtpNeHc7XEvVgOuVb446KAjpv86L+1uksR3L/woUJgalUn4guByNEDFqt76hh1/DIH+4XLGZR5KO2t23Zh8gkxbVZvCDXqQ5m4kEOIg4MPrE4EIFgy4huBnFJ9EXLIMVYgKxAlCOoNd0IED1dWYCDlMO4gXUAEgugoXPQbTkv/9rv0zrvv06x5j1auAzmEcYAVD8hCkDM6+YeA4viRgjSQg4gRhaDTYybM5DFCMGpYEq1Yu4OQF+3sP3yO78G1DPGrmjZvS4hBdCzmGscJQtBrWKRhjIEr9BUxpxBMG/1QY68f8bwlvilDsJADAQZsw81MxcYCnmHBBvdKkD9KFnodOEcdCIqtp4OMhBz1NJBceG57IknPE5fzpEIOYSlyXy4HD3Lg87yZ6erhyYbirVunOFOioYjD+gOYwwpbzvIlRLrVySG4WYHIgKyqlCvA8YEQIwjEGgIrK1IE1jmwDoJcT+4exat9rZvf1ZAt3KZQR5ZMb9HHWd423LAQmBnxebBqXdsmZemtN1/herHSGOQPYgQr4GGVMBAmyId21Jhj9a/XX32RVyaL3DiAY/YAFxjjA1sHc5voL8gfBLQGmYS6VDwgfYzXzutCTz+dgutDQG0QOqgHFkCIhYQ0uJQhwHWyZE9wYGrUA3IIK6HBCghtoL8gx1A3YgrlzvE+r06mXNZQ7zvp0zKxuXFhN+4jrIvwbCCVIAMQXnheBPnG8145PMmQpd5ns+dJhRyCcg2c7Tzy31LxE+YP5TQEHbZXius1rWGz7L39fVfXIIfgWqbn6dq/DX9LVXwZIYcShxwCIQOrGwSb1scHWEj5TEp2L8uY5X0qWPgzJm+wohlcBL+tUIxgAYRxw/0CX+Vlix8QNlmzf0i5P8thWPIg6DWw9l7GdzgvrInQFtrGSmi4BzIKlmwqDpXeF5zDagnxiBDMHOWwGhrcyRAnC7Gw8hTIZRBAelngG/W3792C21Sr9C3c9ChGUc0GlSnVC8/bPLte3tfngUoOQWfWdWK4ix07dozj6+phURCDSG1qISbkBRF05swZm/hDCECtth07dsTSmXUdWsghJSk/PlqdHALgFi5cSPfu3WMpr1mzxgioBRDDsgfBsQYPHmyANTw83BgRRQKhHsQWWrJkCZNNsA5CGsghyGDEiBFGeURdv3nzJiEiuw54sRxyrPx7qnjCHQcWH/0HjzGUXFhSlC5b0bgGMQR3MQSiRjwiBCRWy4OrGDGq3fIVqlGqVKltliEHiQAiSOVRRwQGRn51rdzKdJJHuZWhbeTbG3WGnnvueUJgalVu47YIdjVDv1QaAmbDykVd+/pYuftuajHioIH1+J50mhBNpTvYkmneeAYQeFhRTt9hAYO6QYzARQ/34OaFNJArWI2u38BRtD30kCFPkEOw/lm2ehvHn9JXlFP9BJGEsQRRgnzKvVBvC0TizLkrbNzZUJfqH0jL9Vt2G9ewalP1o05Yt2H8VZqjI54LbfQKHkyz56/kZ1L5UIdqC0fIR93TjyvX7aS5i9bY3Nuycz8Bn3o+kGqIk+WMZNLzenKeVMghKNtqJSmzSmx882EpdbN1QOEXcsh1sO6o7UPZegYWNI52WP8oeYMcgWUPLGcckRmwPMJS9HBFU2VgPYPg1ZsWdWdLmj3r+xMCTav7iB2EANIgGs/vH2/0QXf/AgmE1dLmT2xtuK6BtNH7i3r0a0UuqXbUMWbPGA5Ejf4oax7cO7dvHGGZe7jCgYBEW8p1DeTQ8OB67HaGYNrXjk41+n9o2xCj3SMhwzkdhBGeSeXD8+I9QX14xlWzO3HbaEv1Wbd+Un315JhUyCG4kCFQ9NApfQzFGEp85mwZYynZsLaA4o5YNHFRlkEOwRVJLwtLE50wgiUJlPhespS9jZx0mfnqfOrSUQ6tddZFLKIeg9szRiLPbeF+YWW5SQuH8w6rIP162Y5ZBNJF3V+ybYbxLDNXjqMu/X42AkirZ4Fr2JjZg3i1M6yWp9Ltj1OWjDTqhSUQ2kIaglsPGNeTVzyzL4NrYBcWSpsPLOO6gTM8k3oe1APCyFHZhEgLRHJo586dtHz5coIeHB0dTZGRkawjI2RKjx49WKeF0QNiEWGZe7UfP36c9u/fTydOnDDSsDATdGDo2ahHz7tgwQJCnCJdR1bnQg7FVxuzQHl/IIcAOLCaAP21a9fozz//JKxeBqAikLQCPI4ggwByBWIQR1jCD0G2dNCrWEOHDx/miOu4j33v3r3MmK5cuZKDcymw4yjkkHfIISioWP0JcVmgvMOy45M8+ejgkQus9MJFBkuB48eK/f5Z/kI2ijHqggKdLl16tvhQyu9XhYsTggiraxyhWIPAgTUGiCaQVFNnLuY2KletxRZKsA6CexLaHTBkLMe6QVlYmrz11ttMYIA0+vKrooZFC8iM5Wu2cxmk6yuq6e17+9xfyCFvPTdczuwDUnurbqkn9rudVMghWD3YW/Ig1gwIAXvFFlYScEGyT1cWHjgqVxs9D0gDVR8U6eeefTpWHc7qTvNKKiGH/u+OpctUzl0TZvbywWplsJiyT7fSdVIhh6D4dh3QlpckhwXI2j0LefUnuI/ZK8VwKYI1iH262WuQQyCi1MpSIBXSvp6GFm+1JQ/wmwcWSmbr9XW+QA9I7Wv5Sf3urcECkRyC0YSut9pf6/d8dS7kkAXInfh2wV/IIV+B2P7Fsb/W2xVyKLYCGR+lGgQNrDwmTp1vQ+yAHNItK/RzfXUw1TbImflL1tkQQavWhcRyR0NsGlUXyCmQOOoaR6x+BksVPU25HaEtWCyBMIIFEVyjVPtwF9LL2LuyqXzePiY1ciio3zCC6x5cz7wtS6kv9rudFMghED1N6pUwFGa42yA+EFx6smd9h0b0qc/3QB7BpQbuRXWrfsXuN4ghBNckLP+d9cO32JLixReeY5cf5IPSDasLuCEhHVYqcCXCMuCwbOzUsgKtmNmBiSlHdSulHUuei+WQZ0SIkp0cH8kNxCRwBMshK8skKZFDUN5HTu9PNX6oyKSMM8sgxHnpHQ+LHpBDWFkKlkkgf9CeijWEPoA0gptQo1Z1OQ9i26hA1YlJMAg55J7cSMzxCYS2A4UcwjL0uq6a2OfLli1jakIPfp3QfUqdOjUVKFCA+/Hvv//GlyqJVV4CUnfsmCCgGzZsGAsffo4JDSKz7f3111/cR91n02xZb+YrU+bRShOrVq2KBdi4JgxbeIqKtAqho2dF8fYXoiApkUMbtu6hNu27UeMmrWjIiIk2ZKK/jJe/9TMpkEMgZ7BDYYa1EAghuMngGq5H+G863GtmjGrO95AO66Bnn3maV73CuVqqHPlBBoFcQjksbQ6lPOT/q0IpFyYEEEb8GqWkO6tb3RdySIghhYW4HGGRBouhdk3LUe8O1Yw4Q3Gpy9dlkho5lBAKNsgh+9XKEqLd+LYh5JCQQ/HFkLvy/k4OwQ3s7t277PFiFYJoxowZHLMX/XIXuNqberF9XUIOxZUN+H85q1gOYSUygOnWrVuEaOpYVt5+sBPrGi5ocDND/7ALORTbysDfFN9A6G9SIocCYbz87RmSAjn00/clDDcxxFfJ9fF7BmkD4gfLn0MhxqphiDMD97Cl09px8N2Zo5vzPZA7CM6rFGdYGSFOkFr1CqtggSxyRg65qht1Cjkk5JDCVqAfhRzyPiGAYMX5Cua2jLuYO4Vd3RdyyPtYULKV4yPZ+js5lFg6sT+0K+RQgJBD/gA2q/RRLIeEnALRIOSQ4MCXhFOgk0MgcXSXsmFB3xvWQfZKOIL+YmUmrAKFQMVYTlyRQzjiWi9TMF9mdj9DGlzPXJFDrupGeSGHhBzSsRXI50IOmSMEsApU2x7NXO6d+rRm9zGshoUVrhBwGAGC/YUYEHLIHBb8ZTyt2E8hhxLGMygxdGchh+JJDmFVLvxwzZEjh2UsdRIDSP7UppBDQgoIOSQY8CUxhLp9RQ5dC11Cu6q/SL9v7mJDqCS00rt4altegUq1i1WesIS4svBBOtzEQO5gKfRiX2Y3VoayJ4d0yyGUwzLhWBYd5+7IIVd1o3wgk0NHBlWjsDqvJioOIGPZrSEDX5FD53+NoQq98tDI1V39hhxxpUyHnVxPo2cNdLmPmTPIWGFKrWCFZchd1Wule74gh9ZHLmYcLAwb5zdysNKYBFpf4kIOtWjxaMGaZs2aic6cQGFn4qKfCzkUT3IIxV966SV64403BOgWBrr+cnz55ZePYlqEhXlh9B9VMW75aY45FHn00RLjvlY8pf74kxvlOoVRu7FRXsMAlrIv1d77S9nLWMd/rBNDhr4ih/6I2srk0JWlzRJVKW9UpxjHGVLEAIigVM8/QyW+zkm/HpnCO9zOELOlctn8VKpYbu4vlgt/IfWzbEmEpcZhOfT8cyk5FhHqQqBqEDoghXCt3MqwhDqusVoZ/iFz+/xcOhM51mXdyP/Ky6lo9tiWiSqrw90/o7Dv3/TaXKMqOjm+KWPhwcU5ifp8kLPsiS+DmNHlGQ/3bv2mIOKV4x9//sakQN+FLYUUuOQfFilDl3fgMbt6/aJXMIBKwo9u5Tpnbh8qOPATHPiSkFoaMZnxsGHvEtMY69evH3+/a9euLTqzRXXm9u3bU4oUKejbb7/lcZWA1KbhbZuxfPnyvHrKjz/+KGC3KNgVOdShQwdKkyYNE3r37t2zHch4XG2K/JXJoZnrzslKUFesr8yHHvqNx2v0kph4jLpt0X6zj3Odpy78KRjwAwz4mjDqOfUo4+H23Qe2QInn1Z3fLrICeGLIN4mmkP91ZjY1rR+7/VWzOzFBBPIG1kARG/pzH5dMbUfJkj1BeXJ+wAGoccyS6S2K2j6UyaGUKVNQm5/K0pq5nal25S8JVkggG26cmsGBgFFfj7ZVOLj19RPTKd0bL1O2LG/TtmW9yFXdqAdly5fMS1hJLTEIjIdX5tPuH9JRVM+S8Rz52MUvrRnDWPh9S7dEebbEkKe06ZyE2tc6K0U0yULe/jH/4OEDqjuoKP04soyQAn5CCrQcV4lqD/iaHv77MPbEEceUK79fYDKgz4IWggM/wYEvyaHhK7swHo6eP2AaUSEhIfxNzps3r+jLFtWXq1SpwmMUFBTE4+rt7wkqDfjVyvCQO3bsYEG+9957BMZNERFytJ4/ZtGiRXms2rVrZ3oyM5Pxr9v3qUyHMKrZO4JiLgo54GvFO771dxx/mBX3I2dvmRleU3lmbzjPdW6K+EXIISGHqH6/vVSp225T2PE0U1TvUhRW9zW6fXRcopACIId+iZ7isG0sb38sdISNVREU+j9OzmByB+e3Ts/iJehxrmIOYVWzIyHD2SLIHQEAayTkV/mc1a3uJ+bx8qKfmMC5snGyp8PsNj8ThTVfoaiueQ2XvcR8VmnbOXHja9nAzRTupmdmd3WLm7hkGLeqLyuCS/ZMEmLA4sTAyn3TeaxGLusRl6F2WabtxFpUre/ntOPECsGBxXHgS2Jo95kNVGdgYWo4rJRHBOTDhw8pY8aM9NRTT9FPP/0k+rLFCCLoxq+//jqPz+XLl3kuEHLI5ZTo+qbyo8yUKRO1atVKAG8xwMNiCMTQ448/TpkzZ6a///7b9YDG4e68TReYHOgyMZpOX/pLCAKLEgQTV5zhceoz81gcRtl5kVMX/+J6O0+IlrG36NjHl1Q0W37L3keWhMMXnnIOmHjcuXF0F+2q8TId7JCT7p2ZYZAkvlZAfVG//Wplvmgjseq8EdaXYwLtbZWTHtzx/jcHEDoz6/+kwMQq9O/VhX6NhcQaJ39v968Dwym8/pu0u/EHdO/mtXjMLM6LXrtxlWr2+4K+H1yEth1fJsSARYmB7cdX8BhV71uQYOnj7W3vyV1MPDUfW5H2nN0oOLAoDnxJDO27sJU6TqvLONh6cJXHENu6dSs98cQT7MHRqFEj0Zctoi+Du8iQIQMbUAwYMMAYVyGHDFF4fnL//n2qWbMmCzVlypSUPXt2JiNKlChBsieeDIoXL0758uXjSQjuBR9++CFduOD9DyYQ8+Dhv9R9yhEmCGA1sDLkslgRWYQkOHP5L9oS+Sv9POoQj0/DgfsI1l7e3hB3qEirEJqz4bwQRBYZe7OEjrfyHY65QbWCIqlk21C6eO0fb0PMqO/iqlFsKRDx0/t0bV17enh5nt8RA7AAwpL1zzzzFF2OmhQw1i93T06ms1NqUGjttBRePz39dS7aGDdvnzy8f5eigsowFmBB9EdIkJBESSQG0p3jE+jctFoUVicthdV9nW6d2ONteNnUt+fYdqoc9BmBeBi/IYjCz6wXcsAi5ADGYsKGYKrZ/wuq2DsvxweyGTwvXszeMoaJgR+GlqC5IaNo7wX/CdTtS9Ik0OsGKYRg5HAvRYD68av7xtmFdcqUKfzP+uTJk9Mnn3xClStXprp168qeCDKoXr06FSxYkJ577jnmMOrXr28zrkIOeWHyXLRoEeXOnZsFDDJCdmvIIF26dNSnTx+6ffu2F0bZeRX3HzykyavPUok2u5gkKNo6hMp0DJM9kWVQ/OdH4wHipu+s4/TXP94nhoCK67fuUtUee6hY6xAaMu8kHTt7S0iiJEQSrQ69QtV67uF3f93uq84nCi/dubplBpMPcCcBERHZNANFNsvoN/uiGu/QiDJvGnt4E//qvyNZ72n8LhM1GJMDnb6gv88f8dJoO6/mwd1/KGZae7YmYyzUfIXC66eTPYBlALdSjDX2fW3z0Z8x+5wDxIt3DsSEU8Oh37JyWCkoL9UbXIxAEsieeDL4fnBRqtQ7L48JxmbviRAvjrjjqtbsmU/V+xbiNqsEf0b1hxYXDAT4e1AlOD+Pd9U+BWhJyDQbAsExSlyn7ty5U/RlC/EE0JNnzJgRa9CEHIolkrgnXL16lSIjI2W3gAxiYmLiPYl5ioTfb96lxdsuMRHRa9pRkj1xZYCVo2auP0/nrvrGtUPHx+XfblODAfuYIPi2XSg1GXKAmg07KHuAywCkIMhHjPmq0Cs6JHx6fu/P63R5/QQ6NqwOHQ4uJ7sFZHBqYgu6vn8D/fvQe8FgzYDo9rXzdHHFMDo+6gc6Nqyu7P9r71zArSrKN25lpWZesnuZtzIzES3NpMzMUDMkzQtp2UVQShPKBMzUR0ULAQUKb0SiCCpaoJk3CBMVBNS8QpZimVqCIUaZZvaf//Obx3c1Z7HW3vsc9j5nn7Pf73n2WXvNmpk16117vjPzzfe908MxePyyk8KqB+aG/3ulMYsdZb+5l15+Mcx78MYwfuap4fTLj/WnCTAYP/OUMO/BmwLvprNk9QvPhxsWXRVGXz3cv4Em+A00ui+eM+PEcO38qWHl6hV1/YktWbIkXHbZZeHiiy/2pwswmDx5cliwYEGAD6pIbBwqQsVpRsAIGIF2IkCI4ezFy8OICx8OB5+6MBx48l3+9HAMMAjiNbj8uZfa+WtxdiNgBIyAETACRsAIGAEj0FwI2DjUXO/DrTECRsAIGAEjYASMgBEwAkbACBgBI2AEjECnImDjUKfC7ZsZASNgBIyAETACRsAIGAEjYASMgBEwAkaguRCwcai53odbYwSMgBEwAkbACBgBI2AEjIARMAJGwAgYgU5FwMahToXbNzMCRsAIGAEjYASMgBEwAkbACBgBI2AEjEBzIWDjUHO9D7fGCBgBI2AEjIARMAJGwAgYASNgBIyAETACnYqAjUOdCrdvZgSMgBEwAkbACBgBI2AEjIARMAJGwAgYgeZCwMah5nofbo0RMAJGwAgYASNgBIyAETACRsAIGAEjYAQ6FQEbhzoVbt+suyDw97//PYwbNy785z//abom//73vw+TJk2q2K5a8lSsoIMXH3nkkTBhwoQwceLE8I9//KODtTRnMZ7tRz/6UY97ruZE261qFgRWrVoVxowZ05S6sFaMVq9eHX7yk5+EZ555JiuCDr3xxhuzc38xAkageRCYM2dOuO2225qnQR1siccNHQTOxYyAEegyBGwc6jLofeNmReDf//53+MxnPhOGDBkSm7h06dLw7W9/Oxx77LHhuOOOCyNHjgyLFi3qsuZ/5zvfCVtssUXF+5Nnyy23zPKcdNJJoU+fPtl5I7785je/Ceuuu2746Ec/Gj72sY8FBkWpnHbaaeGiiy5Kk7Lvzz33XBg4cGCYPXt2lra2X+r9zLz717zmNYGJpsUItAIC6MJPf/rTmS7UM//1r38N9OcDDzwwHHrooWHs2LEBI1I95Re/+EXYZpttwqOPPrrW1d5www1hnXXWCU888USs69lnn43nw4YNW+u6XYERMAL1ReCWW24Jm266afjTn/4U9YzHDfXF17UZASNgBCohYONQJXR8rSUROOaYY8K2224b/vWvf8XnxzC04YYbhiOOOCJOhJiwMNG44IILugSfPfbYI3zxi1+seG/yHHzwwVmeL3/5y4HnaqRgEOrfv38oUyp77bVX2HXXXQubMGLEiPDGN74xPPnkk4XXO5JYz2fGC+p973tfNA52pC0uYwS6IwKDBg0KH/zgBzNdyDNMmTIlvOlNb4r9AYPugAEDwsYbbxz69u1b10fE0+dTn/pUZoxloojRPm90ruWmZ5xxRthss80y3fTjH/84bLDBBnHyWUt55zECRqBzEKB/M9665JJL4g09bugc3H0XI2AEjIAQKJvH6XpHjut0pJDLGIFmQGDBggXR8HPFFVdkzdl9993D/vvvn52zmo6hoMzQkWVswJf//ve/ceD0wx/+sLR25SEEqrPkb3/7W8Rt2rRppbf85je/GVcD8xn+8pe/hPXWWy/g6dOsMnjw4MDv4MUXX2zWJrpdRqCuCEgXXnnllVm9s2bNiv386KOPbtMX6P/XXnttlq8RXy6//PJ4b7wM2ysHHHBA2GeffWIxPJGYfDa6ve1to/MbASMQYj9lcU6TE48b/KswAkbACHQuAtK/9byrjUP1RNN1dSoCl156adh8883D008/He8L5xCGC0IoJHQavIc++9nPKike582bFw455JDw8Y9/PBx++OHh/vvvz67DdUH4xYoVKwKGHUI1vvSlL4Vly5ZlefiOR5BCH7jw5z//OaY99thjMR9cQngtESYBDwj1UCZdTVcehWg99dRTbeqgIsJCCJOjrfvuu2+46qqrsnYUfaEuPHE+8YlPxOcghEyCyzd10C4mYHhYFYVejR8/vnByx+CPVf3nn39eVYbHH388ejphkOnXr18gxESCMQmvKCakGMDA4LDDDgt//OMflSUUPfNLL70U8+ONgGcV74E0Sdn7u/vuu8Muu+wSCEWxGIFWQQBdiBGc/ob885//DO985ztj33nllVdKYcDjEkMvnoQY1X/729+GU045JWBYkmBcWrhwYZg+fXrUGXgd/epXv9LleDzqqKPCddddFyeJ6Koddtghhq2iX9BF8uys5X7vfve7w/e///1YL3oXTjSLETACzYfA9ttvn/VVWudxQ/O9I7fICBiBno2AjUM9+/366dYSgYceeigaNH75y1/GmugwhJNhCPn5z3+e1T5q1KgYFsWkiAkPrtDEzDOhQq655prw5je/ORpjPv/5z4fRo0eHd73rXWHnnXfO6pg8eXKsNyVyxhOHe2m1HI+m173udXHitd9++wXu+7a3vS307t07q4c8lMF4grDyz/nKlSvjOSvnb3nLW2IdGJiOP/74GGKRGkqyykIIP/jBD8JrX/vawISOUI+99947cu8w6UNo92677RZDTYYPHx7OPPPMgPdSXm666abYDowtEoxePA/1SiChJMSMCSDeAt/61rdiOTwZELDcZJNNIpZMPsFyo402igYw1ZF/Zjx+mKwySaR9hJm8/e1vD3Pnzo1Fqr0/1eujEWhVBDCooEcwopYJXpX0M3Qb/QzDL3rvDW94Q2YcWr58eawH/fXhD/Ka6bcAACAASURBVH84GrkxOr/+9a/PCKMxXnOvmTNnBgxRhJ2+9a1vjQYidMxZZ50VjUa13A/DPHWlBuay9jvdCBiB5kLA44bmeh9ujREwAj0fARuHev479hOuBQKsnjOxgEsH7xRWteDbgLNCctddd8U8rHJLfvazn8U0PH8QJjTUc8IJJ2Tu0hhmSGNnNISJFPweqUAsvdVWW2VJlKcM5MjqvHjPkCZCWPKkhNXf+9732pBTMxHDmPPyyy9n9cqQlCW8+gUPIepOw+wweGG8wWgkwZMHD55KgjcQdaVhKnhYvf/978/agscRk0CeW4JHFeWmTp0ak4Tl0KFDMwwOOuigNgay/DPTVgxIKacRBjcmnrW8P7XFRyPQqgjg3YNxVXqnCAe88dAN8nQkz9lnnx37r/oeO4TRn9FDL7zwQqwGgzFp0qF4EXEuL0r6KRxB55xzTpvb1nI/kVHDWWQxAkageyHgcUP3el9urREwAt0fgUrjvI4+ncPKOoqcyzUdAhhhIFvFuwbeCiYspKWCYeId73hHXOXG0+XEE0+MBqSvfe1rWTaIVDHysNItkQeSvIJYccdYkgohUISqSTDAEOqRevmcf/75sV2qR6FmaRmRU+PtwzPkQziUN3/EM4fdx/KKAq+bFAd2RuO5KwkTPDwIWPVHCLujLemKPkY30n76059GIxKTP3Dr1atXZkTDc4n7pVjiqcX7kYCBnpnQQLy4MBgVSS3vr6ic04xAKyFAn2d3sjJBR7z3ve8NhIOlcvrpp0fvRukQdnukj//hD3/IsrEjJGl4CiF5Amld//Wvf52VqfV+eDDhKan7ZxX4ixEwAk2PgMcNTf+K3EAjYAR6GAKNGC/ZONTDfiSt/Dhw8hAGJiG8gUmMVrTpQIRNQKBImASGHPIQGqXOxRED08knn6xq4hHPF7xkuI4BgxX3c889N8sDBw/GFK2Wkw/vF3FnKCNeNtqJR3kwqiA6Fzk1IViEiImvQ3UUHSm7/vrrr3E/wt7Y0l1tJVwNTKrxFnEPwkhkNMPw1KdPnwwnrmPgARO4i77whS8EdoqbMWNGZgiiTYSUpeTVSmMSiuSfefHixbF9c+bMidfTP+St9v7S/P5uBFoRAfoJffyrX/1q6eOL6ywNtyUzOhTdKMELE6+hVCCHpv6HH344JqcE0iQUkVG353713kktbbu/GwEj0FgEPG5oLL6u3QgYASOQIsCYr95i41C9EXV9XYKAyKhldKAR99xzT5zEMFlBCOViUqNtV4saSogFedJVbzh58IjRZOvBBx+MeW699dasinHjxrUpB1cQ9aRGDjowYVlf+cpXYjnlueWWW+K57i1yaowteDnVIoS7cb8JEya0yS4+H03kqJt8aShJmwLJCeTZTAzvuOOOWEY8Qsqy4447hiOPPFKnaxwVYqbnIwNE1Nxf3lD5Z8YziespabcqruX9Ka+PRqCVEcDAnTfqpHiIG+Tee+/Nku+7777Y99IQ1Pe85z1tQlLJjMGYdHGV8T01gmNIT8NrKdOe+6XG5Kxx/mIEjEC3QMDjhm7xmtxII2AEeggCNg71kBfpx6g/AjLYXH/99VnleNzgNaMQJXh7IFTOewVlBUKIHjUYJ1KuHcKnqEekzjfffHOcROHlgrCTD9xGlFO4GJ45nEPILIHImTSMVojyiEMIrxuu65xJ2rrrrpudUyY1WqlejkzU8FyCEFoCmSx8Rml4CV5JTBxrUSZM+DBOMclU2Jfq5rjnnntGb6I0Lf1+9dVXt3keruGpwDNCYovkn5nn47pIxcnDu4Wotpb3Fyv1nzUQwIMMQ1wa3rdGJif0GATYbZF+BIePhP4zZcqUgFEacneuY7RB0BUYe0nTtvEihz7mmGMyfYHuQofKE1GE1akHEjtDohtSqeV+RXWldfj72iPAIgqGd/2PWfsaXYMRaIuAxw1t8fBZYxDg/wUeqVqkaMxdXKsRaH4EapnPtfcp7DnUXsScvykRwBuIiY22clYj89vY47XDTjtMeNiyma2S2dpdAhcPoUuEjQ0YMCCGS1GvQr3IB1kqxqKPfOQj0QsIjgw8aLbeemtVE4YNGxYJYamHe2CgyddDHjiJJPlzVvUpA/H1wIED4xbtcB2VCVtI0y7ux/OxMxocRDJYUY5VPTiVapHLLrss3h8DFRPKvIjIm9CT0047LQwaNCi2Vdvc55+H8gwcIcqV5PNAoM11eIfgQyHEBWMWAwGk2vtTvc1y5B1ClC7PLbWLd8LudumW4brWiCN8WPyWaEteCLvEiFn2ST2/8mV93pwIQAzLLmS881133TVgsEEfsL09vz3IpQkJhXeInQ3Ji84gv8ioRQ5NX4QXDM/JDTfcMOpLjAyICKvxCJSwfT16Dw8jeXLWcr+iulRnqx8xyqX9EyO6dGJ7sCHsmXdcZOxvTz3Ky2IE3rApF52u1fOIETN9/vx3/WbreU/X1TEEPG7oGG49rRQ6P99P8+cpH2el50f/sXjB/yEEbistyObHVpXq8TUj0BMRsHGoJ75VP1NdEGBlWuTJaYUMVCCBlrB6DoEyEyImO5RJyVb558OqO7tisSMZBg9toa46ODJxwmCDsQNjEeFjCl/jOl5BTKrnz58fJ13Uw25iqUyfPj3b1Yv0/DlphHINGTIkTrR4DnYIKxNWUDA4YCRi0E57NImjDApk8803j4arsjrSdHZvw3hTxk9EfQzaIQBnK3t2JoO/SVL0PNSF94KkKA8DfXDF4AbZrTijKFPt/aneZjliQGQyBn9UKhdddFFM/8AHPpAmN+S7do+iHRCL5wWcuVb22WGHHfJFOnSOJx+Ew7xTr/Z1CMJ2FYJfDA+fb3zjG5EPjL6mHceo6He/+1347ne/G/UL3o/oQW07z3XeEwYl6QF+J5MnT27z7iiHYTgdnDz11FPRWxOdhx6VVLtfUV0q28pHdD7Gtnz/xGgvvrpa8cEoRD3sStcewRgFPx8hxhIM+WpT+r9P1+t11A5YulfRsV7GqaLnrNdztEo90hceN7TKGy9+Ti3YFvVXpdXqwciiLWW0AItBiPP11luvzRg3bUkj+3Ij606fwd+NQC0IpOOvWvLXkseeQ7Wg5DwtgQATVkikR40a1SOfVzuOFRm7euQDd/FDEcKFlxqDmDzmGCdJx8ur0bJkyZJ4L8IOMa7lBYMioZZ82OWKdmEkVZr4ofLl2nuO4ZC68VKxND8C/fr1a+NV2fwt7pktnDdvXuw3hPNNmjQpEJ6MNxh9iQ+LE7UKO0dSpr3egIQJUo77SxiQXnfddTEMEQN0owRvYOkiNpGgHWzUwAIC6XgAEzZbDyl6znrU6zqMQKshwMKo+q30FVx0SkOP1SrouKlTp2Ye7PJOYwOFMmlkX25k3WXP43QjUIaAjUNlyDjdCNQBAVbOOzJwrsOtG1oFXEl4QRHCBn9QIwfyDX2Qbla5wgL5TUGmnQrhfqSPHTs2S8ZwQ6geHm14e1x44YXhxRdfzK7zBQMfXmF4asHpBH/IqaeeGu6+++4s34oVK+IADMMTROl4ynGvSiGJFMY4StgQeYtW4lnlw+Pg8MMPj95p8ELpn5IGgrRJAjcXvFkYl5hEsqMddTNAJExTBrNnn302ekAQMoi3CeFFlq5HACOeyaG7/j2cd955sd/07t07awxeqPQlPkuXLs3SK/VRrqlMumJfSaeQj8UShXBg1OaccBD+X6J7Ug8R9AGbHsDzh47CgJN65tJQvCbxaKMOvuORhvdZLQYe9CXPUObNCBbcG93HUZ6StAuvOAxJ6EeETRxI4xmYfJY9J3kfeuih6DlFvew46lCWCKH/GIGaEGAXYfotm6zkhXEPG6kwrsBDCGMweiH1tmYMQz8VVyX1UN9xxx2Xry7yqVXqyxTAOD548OCoo0aOHBk5LUnH65X7EH6rsQ0er6RhzKqkD8lPRAGe/ugJPG9TPbtGQ51gBOqEgH6rdaouVmPPoXqi6bq6NQIMLPmHIc6cbv0wSeMhzoZPhAE5oQCWzkGAVXYGMHKF1l0ZDMmjSGF48IewBTD5MdDg5cN3DCoS4vUJJSFdHwjH+S6jDAMZuGR0nSOu1xxTsnLVmR613Th5894Id955Z9hkk01iPXBsqf7x48fHKjD+kEYePKaYPBEKwwdCcYjNVUZHQszgqlF95OG5P/ShD6XN8vcuQIDfKIYAked3QRN8y1cRgMOJPoPBWILRjjT42XhXSLU+qp0qU567ajpF4a/qsxzRJxh21Aa4pRD6PZx2aV6+o7P0OyK0FK8fePR23333NnkJh64mTLqoU/dM87NxBHVzfbPNNotHzmU432mnnWKaDPIYo8kLvhji+Z5+9JwQtMPlx0c8XtV0adoufzcCrY4AXHf0rTznIfogrwegPiCvxgGEQtP3SNO4RGVSigJhXElnsTAqHcIYjEgB6mXHTcJ3WajCQ5M0dBbj5W233TaeY6CqVDfGaMqhNwjH5rvGZWqbj0agEQjYONQIVF2nETACRqABCCh0jEHCBhtskH1krCGd1WsUO2FcnMPbhAePdt9jUARvFCtm1EEeVq4xKn3uc5+L56QtW7Ys1oN3AecQEN9+++3Rg4hzPnglVZIrrrgi5mNilf6zYfULAw5t0S5yTMSoc4899ohVMjGEuJg0dq7q1atX/K4wlFtvvTWbsOF9BFcVRlhW2SjDMyF4D6Tbq1dqr68ZgVZAQJMTNk6A4Fur8Exi1B9r6aN469HXDjrooAhbLToF/pihQ4fGctttt13stzL09O3bN6YrPESTI4zhLEjgAUDYB/fEOwiBV4pzPngQ4qGozRqY8FUTONooO3HixDZZ5UmF8QZPJfQXz0leVv0RFkc4hwdOuo76mBRWek7t4ocBHCEvPEgWI2AEqiPw9NNPx35H38t73ElnYLDGYxhOO/GrYbxF4N2kLGMQ+jUGnvXXXz+mMU7KS6W+jDcPdbEpC2Mvxi1auGKMghBOTZ4TTjgh26QBrybuXVY3mzxQBoOTPBNlXMq3z+dGoN4IpOP1etVtz6F6Iel6jIARMAIJAiKjZhKHR4w+WgUTGbUmNuySt2jRouiarImNQsGYFDL4YLKlfwSQ/ZKGtw5pkCRyTgiIdqhLB1IKsUia2OYr5MSU32effdqkE/JBOjue0T7CSDRhwpglIXRR9+fICp3aSlgdaXwYLEq0es8qYUperOs+GoFWRgDDhfpNekR3pBOjWvponoy6Fp0C9hhuuTfGbgn9Wh5/TN4wTsmrEY4kCWFblNUOmRh1OGdyh0EbkdFq//33V7HCI8ZkYZDXFdqNkQkdHlQXXHBB5umIIRpB70j3YmhHH6c6seg5KceOftwXI5Y8Fwob6EQjYATWQAADtvp8SmnAQpAWvFIONMYf5CfUDMH4zDnGaKQWMuqivowxSOGxGIcxBsn7kXTt/jhjxox4P7WN3RjRw5KiutFltJEPujjNr3I+GoFGIaBxdj3rt3Gonmi6LiNgBIzAqyEWCh3TipSAOeqoo+IgAuMJIqOMBhccGZjA2aEYexE6apWectqWeu+99471aBVOngEksoJPfazGKfwkZi74owkWPCGp7LzzztnAR21ktY0VeVbeJOxYpOuEc6Q8S2DANdzLU6F9cu3mOth4J7MUIX9vZQRSMmp2CmN3MvWx1AhTSx/Nk1HXolPAHu9A7nnxxRdnrwIjCWkYW7RlNed47qQDVXayJJ2Vd+TrX/96PKefS7hGnrze0XUdZURHtxCOIkHPyOhDPfpsv/32cQdQ5UOvbLPNNtl19GUqRc/JdULOVD86nfASixEwArUhIMN13jMQTyH6Kp7K+p/PeELjAYy8CCGk5BP/XS1k1EV9WUYq6QeO6JK99torjpP0NOyWm+bJb8hRVDc6T+G/lGVjD8Y2FiPQGQik/3PrdT8bh+qFpOsxAkbACLyKQEpGneewUuiXuC9YMWdAARnjAw88EFen0xU2qhTfj1bYGETB20E5ee8oPEPnlBs4cGDMIw+kshfE4KyMjForaKyosWqHwSr/zwhXavhPaA8DLo54MklEJEtITF5YsRPBJOXwTrIYASMQQhEZtbhz8NSTVOujePbQt/jwHalFp6R6QeFklCUcjLrgSUPGjBkTz9nwQJIaY+DqQBRuii6RKGxu5syZSio8SofkyajhFKIt6K/77rsvEnTndS4VyrAm/ZRvq/Rf+pxqCITUGOG5D14GhPpajIARqI6AwmDzZNR4BtGf0h3HtMCEMVb8mPR38hGujmisUERGzfUynSUdRQg/HoOEn+Y3/KCsPJekJ9hUQ1JWN9cZE0FITbgs7d1vv/1UzEcj0FAE8uPxetzMxqF6oOg6jIARMAIJAiKjZqU6FQYjIjxkJRzRLl7pSjbKXl5D5BGfDzH5rJqzoxkDED4iPezfv388J1SLQUxKslqNQLUSGfXGG28c601X0PBCgrwRwZAFxxFtYbcxkdLiJSBR+BjGKp6NyRXx+xDbIpxrsoqHhMUIGIEQPW7oV6mnDZsLkEbYqqRaHy0io65Fp6ThEuzkI+9DvHxoA3oI0Y6IELvSp+nj7BhEHgjyCekQGTVp4uwhnXM+6INKIiLZPBk1Ez3KE9amcFrqIbRDO6Cha5lwEs4mwxZlIMRHyp7zscceywzh7PpJGcLRbByq9KZ8zQj8D4EyMmrxFuLRiF7h/77GACKjTnWG+molMmruWtaX2TyD/stOselkOl3sYucy8mCQkjGJ9il/Ud1cQ09IZNBXKK3SfTQCjUJAv8961m/jUD3RdF1GoMEI4MI/derUUG2VtZHNWLlyZRzsN/Ie3b1uTeAOO+ywNo+iVW4GIFrdPv/88+OAhDRWtVi5wgsHd2eJvItYzYLQGk8B7ZzDgAXRYIZ6tAouAtdayahF+qj7cjzkkENi+1gxhwR7zz33DPAjsdsYIu4SPABY7WMHJLVB4R8KJyGdsnhAgQ3PiTFJYTFwGXnilaLfud8xAODlkQ+F7Ggr+D2IoLOjdbRyOXnVwKEjEQcHxhAZV6v1UfH6pCGnteiUJ554ItNNGFYIqUC0us4EDyGfSGLp02o3YVg333xzzCOONIxSGswqVIzdfZQWMxf8kS5LQ2vJhsEdoxS6BX4gPBUImQMfSPmZ/BHmwXXpQULOOIccHyl7TsoxUTz00EMz7qEyj4WCJjvpVQTyYwa8s/hNP/LII12CEcYIOKhYRLE0DgFI6elnfPC+SyUdC2m8Ir0hMuq8zkg5FFPOtbTesr6MEVneQIwz0H8YoWTsnTt3bjQgE4JPW9EbCiedP39+vEVR3ewQSz7C8uF1kx5kHGQxAp2BQLX/nR1pg41DHUHNZVoOgWeeeSYScjLp1+qpQGClgNXMzvB4YFtd/tFqZUVtSI8M2NkWOP+5/vrr02wd+q5VV1aqLeUIsMPPLrvsknn1KCeTbtI1+CGdASqTNyYsrJyxlStGmPT3xEp7nz594io8u2kQfsbxgAMOyCZVTJJYXWelnjCyWbNmBXbnYKVNK/VqR/44bdq0WEZx/el1wlAgo2UXIt47kzT4kDAkMPHfbbfdAiEarKwjGDAZKNGGJUuWxLSlS5fGPHAVsaLGij6kkBiFmCwSnoLnFJMIS/sRwMCY9ndc4Xn/7TW05T1C2t+S/5VgIC0CUMJ9LO1DAL1AP6L/4tknAUv6FvpAJKqV+ijl4CdD70yfPl3VRJ1QTaeQGc4QdhOi/8P3gWAsIRxE/Zs09BXtRYfRzzH+phNCvJdoQ+ohiTciaSNGjIj1lv0BCwznn/zkJwOTsbwwUcQohGEKfcLkjzBdfv88O94CEMlqEI2nE2nwvUmKnhN9CCEtRnMMTvSz9vYp1d+djuBNeHKqU/LfmdzXIkVjhmreH/ze4avK35OQorXFn9+ANlTAm8TSOATo/4wPMMQUvbfRo0dHXYFRCE9D/mfRz7QzYF5naLyBp3JRfXqSor7MNcbPtAeeIwy/jFvwxkbQV+hV6TjSCN1FT6R6M183YxbGXegevKQIP5VBPFbsP0agwQjo/1o9b2PjUD3RdF09FgFtfcs/lLQjMojSBKgexpdqADLpwziUGhfSMhixtFKTP6arz2mZou+EDOG5wkSeZ5Ro8shAXYIxin+46T9QXfPRCBiBxiJQqc9jZEz7b7WW5D1CquXXdYzjTPhSY4FCmZisp+E+KuOjETACzYkAxrb8+CF/PmfOnJoanx8z1OL9oZ0v8/esxcMsbVTR2ITFCzxI8PaQh2TZeCety9+NgBEwAs2IQDonrVf7bByqF5Kup0cjwBa5DFSYbKWScrXgQttogeSOdpSteLESy3XcdPHkYJVZH4Ug1NJGDF3Uw4pOKqzWwA2Rrtpoy/Yrr7wyzervRsAIdAIC6vOEGkKyyWot3E/0Xz6p90al5jDAYEWVMnKjr5Rf11LemLwOxLtMxKLK76MRMALNjQB9FuMPH3alRCcQLoPBlzRCcGo1OufHDLVsRY63BvfE+0vjF454I7ZHysYmeNqJmJ36ysY77bmX8xoBI2AEugIBG4e6AnXf0wiEEHlWGKyccsopbfDAIEJ6fotuuBRwfYUXhnAh3NdFjkkFkOuxuxTXcatnBYstfSEnlpCfcltssUU00kAwTMgQ90tDjpSfI2FEXMe9v0iIo8YjiJ1bbrvttuiqD08D99YkDu8k7YSFOz3eBNrG+Mgjj4y8E48++mjcFWbffffNCJZxyeV8wYIF8f6EHkkYSBKPTVgAg0OLETAC9UFAfT7dfYmd4tADfETkyYq9wmnQV0zACJPRwEJ8Cqyos7qOoBMIx0EHEV4D3wvcVnDPsJ05ZOgKEeFe6ApCQRDCbWmTdpkhDQ8iPAm4NzwxlL300kuzNpAHvQGHDqGQAwYMiGGW6LM0tIp8FiNgBBqPAGE09G36al5qGcekYwbKV9uKnJ044arintq0IX9fdq5DB2EMx4DExg9wQ8l7mzDmorEJYyoMW5TVLlRl4x3GXoRdyruINrAdOmW5p8UIGAEj0AwIaAxXz7bYc6ieaLquHokAhg1IdBmsEBdNrL0+ItpNt+ieOHFizAv3AmS7Isskhh7B80Yr9Nq5SoMhDCwIAyQ4HbgnHxHp8Z3JW2poigVe/QMHDXnY3ebJJ5+MH4gXJRBZcx2uF+rhuz5MFBEMQkrTEeMQK20657uIUZXGkbhrkQjSZvEz4YnAdcj+Vq1apeb4aASMwFoioD4/ZMiQWBMk4ErDCMPAAR0GTwx9kIkUhlqIzTkXub24QbQ9OX0X4w55+EgHoavQHRiOtDOd8nCEfwGhHs6pF0EPcW/S0DEiGOb8qquuinngb+AcY5R0JOd8MBhZjIAR6FwEyrYir2Uckx8z0PJqW5FrVzj6PGGqGsekY55evXpFnSAPI+kIFs/Qd2VjEwzkEIqTX1url4138BInH8YxiXblrMaRpfw+GgEjYAQajYCNQ41G2PUbgQIEWJ3S4KPsqAGEdi7YaKONshV7DCuUY8UJYccYzuHtISSDbTAhISZNW45rO0xW+Lk/+TThq0RGrR2s0nYykVMY2Mknn5w9C7tMMZGEAJD8IiMm/EweSuwqBdExyofv5GPihjDQmjBhQkzDI4h8TCiZNOr+tB3huUg74ogj4rn/GAEjUB8EMMjStwgBZSc5GVUgEVb/01bj9HX6KaKtwQkbQcQNou3J4eugXnQQXjvoIIW1SgfR32UgQrdQN3oBzyMZn/EwQvr37x/rw7sIvYNOURtk+CFkRbqDSSlcIKzSk4ax3GIEjEDnIkD/p//h4ZdKLeOY/JiB8vI0nDJlSlpd9n3SpEmZDpAu4KgxFrpDhmqMzYTN3nDDDVkZFtbKxibcRItuep6y8c6wYcNinXhVIxi3pdOkV7NG+4sRMAJGoIsQsHGoi4D3bVsbAYWOwenBxEYfdiXQ4EXuzNrCnFh3dkkZPHhw5nXEYIiwLpVJyVtxXyZdW+1qS0+2lZZUI6NO62ZAg/cQH0LIJLSd+zBRk2C0Ik2eQ/CEqI1MCCXUQzqTQcnAgQNjGpxMqWy11VYxHT4U6sBYRtladzhJ6/J3I2AEihFI+zxbd6vfoj8UGkZJ6RN2ZDnrrLMyLyJ4RBTmKd2AUQjZbrvtYn0pkb2MyykhvryBpAMpS2gpbWFVnoHLsmXLsrbxXUJbyIcuRbTlOgYveQqI80QGJJX10QgYgcYiULYVeap3Ko1j8mMGjDba6rtsK3KNoQht1xiGo/SUPJPRG9ohk9AvzlnUkhSNTVgkk8ekuNjKxjtTp06NdeKdhJx55pnxnJ23LEbACBiBZkHAxqFmeRNuR0shIDLq/KCAuHYGJHxExKqJEoYkVvCZlMGbQZw7MmPGjJh/yy23zDCEh0MTO7YoTwde4gshszx8qpFREwJXRBaJApFXgbbaTEPmGHQhbCPKMxH2kYo8BFJj00477RTzsptbKvJyGjduXDbhg+vIYgSMQP0QEBk1OybSl+nDClWdNm1avFE6+cFIy44/vXv3jtxAWgFPdQMhoOkOaCkJrMI48BhEnn/++dj/Ux1IusI6+vbtG/NhGCcP+jAVheUeffTRMZlwN/KlYRv9+vWLaRiOLEbACHQeAiJqxqAj72PuXss4hnz5MUN7yKjPPffcwgdV2D47pErIi97AwC0pGptgECIfBiI9T9l4R+Ft6MzVq1dn4fa33367buGjETACRqDLEbBxqMtfgRvQiggQqsGAQuEXwoDJF+m4XUvEHYSRp0g0iMFTSALJNfXAx8OA5Z577onnpOEijWhljLQ777xTRdscCRPjOu0tkpRwVqvyTA4pg5s27tqIVurFHaK6CCcjL67iCO7YMmrlyWIVogLBNjunUW7x4sWqykcjYATqgIDIqAnrlBCuSn9TOIS8eOBAK5NUN+BxdO+998Y6qEeTqJTkWjpIeinVgdyDre0pq1DV0aNHx/OUNBsdRJvIJ94jjOac33TTTVlTFSpLKmhNBQAABW5JREFUyJnFCBiBzkOgjIy6lnEMrcyPGdpDRs2GGUUig/Lw4cOzy+g69AaejUjZ2IRQMvKlIapl4x3GQwojI9SWcim3ZHZzfzECRsAIdCECNg51Ifi+dWsikHrWXHvttW1AYBef/IBB8fkMnuiwTKwwiixcuDCWFf/QpptuGtNGjhyZDUBERp16JF1zzTWBsDbycy8GK9pVrE1jQghaYSdkjImUPnKfFhk1u6dJ8Pih3h133FFJgdAT0uAXYfUMT6YiYkn4lcjHBw+GNGRM9eo6O5ZYjIARqC8C6vNDhw7NKmaXHfqdPP8w3Kofqo+iQ/AelFdQnow6LQNZdJkOYgdF6kbvoSvQCQg7B5GuncqmT58ez/FqxHsAnSKvAshlCTcRGTXlVqxYEetJw1rwsLQYASPQeQiUkVHXMo4pGjNUI6NOjdLoJI1hOCpMVmTUjI0kIrefNWtWTCobmxTdv2i8k68XncTCn/SbrvtoBIyAEehqBGwc6uo34Pu3HALyrGFwwK4ZqYirR0SJXGOlnLx8cMUWcaLCMJiMydtG+TQAExk1BikIX3WdoyaBIoJN26HvWmFPy/FdHkDy5hHhLOUUMkdMv0STS9WDl8Ds2bNjeyC5lTD4S59FvCFch09A5Qllg1jWYgSMQH0RUJ+//PLLs4ovueSSrO8R9oU+EacZfZIQNPVNeTjmdQNlxDmkvEU6iK2ddZ0jHEIpYazCYvESkhdBmh9uMuUp0jEKa9l6662z5/MXI2AEOgcBLXaJvFl3rWUcU9SfO0pGjc7AYF2kW+A0lE7RGK1sbFJ0/6Lxjp5TpNvUj5emxQgYASPQbAjYONRsb8Tt6fEIMAhi1wrIpfMdED4dXJvF2wEYTKrwmsHYQkgVXBqTJ0/Odggizx133BF5iCBeJOQDzyLuoYkaeSBthcya3b2oj5V08mhlrAh4uIgwVOU/CufCc4idfxYtWpQVv/rqq2MaoWwSJpSQX8OVhGcTq/r3339/zIcHQSqEmGFs4nnTetmhSAM2+AksRsAI1BcBdA39FMNOanxlgoReIsRChPIYZ8aOHRv1CRMetr1nhx9JkW5gq+pBgwZlOmj58uVRB6UelOhEOEAI66BOPIJWrVoVOYPOPvvsNjoTzyB004EHHhh1C15H2jmNdhTpGPQSOgs9ZTECRqDzEEC/0F8Je5cnX3r3auOYov6MDoJPDE6zIqFMfvzCOWGp6Joi3YIhCH03atSoNvqmaGwyZsyYuICX3r9ovKO2KTwWz2pC1SxGwAgYgWZDID83rUf71qlHJa7DCBgBIyAECKWTV5XDyYSKj0bACBgBI2AEjEB3QADjEgtccEGmO7J1h7a7jUbACLQOAjYOtc679pMagW6LACuDDKogl5XnQrd9GDfcCBgBI2AEjIARaBkE8L7Uzq54RlqMgBEwAs2KgI1Dzfpm3C4jYAQiAoSgHX/88QHiR3iHLEbACBgBI2AEjIAR6C4IQNYPJcB5553XJlStu7Tf7TQCRqB1ELBxqHXetZ/UCBgBI2AEjIARMAJGwAgYASNgBIyAETACayBg49AakDjBCBgBI2AEjIARMAJGwAgYASNgBIyAETACrYOAjUOt8679pEbACBgBI2AEjIARMAJGwAgYASNgBIyAEVgDgU4zDnEjf4yBfwP+Dfg34N+AfwP+Dfg34N+AfwP+Dfg34N+AfwP+Dfg30Hy/gTUsRmuZ4K3s1xJAFzcCRsAIGAEjYASMgBEwAkbACBgBI2AEjEB3RsDGoe789tx2I2AEjIARMAJGwAgYASNgBIyAETACRsAIrCUCNg6tJYAubgSMgBEwAkbACBgBI2AEjIARMAJGwAgYge6MwP8DsFif9IHJfb4AAAAASUVORK5CYII=;" vertex="1" parent="1">
          <mxGeometry x="-1520" y="250" width="3051.92" height="840" as="geometry" />
        </mxCell>
      </root>
    </mxGraphModel>
  </diagram>
</mxfile>
